<svg width="238" height="57" viewBox="0 0 238 57" fill="none" xmlns="http://www.w3.org/2000/svg">
<path d="M5.63848 18.0719C4.763 18.0719 3.93972 17.8912 3.16866 17.5298C2.40562 17.1683 1.747 16.6663 1.19279 16.0238C0.63859 15.3812 0.241008 14.6342 4.90411e-05 13.7829L3.15661 12.9395C3.26102 13.3491 3.44576 13.7025 3.71081 13.9997C3.9839 14.2969 4.29715 14.5298 4.65055 14.6985C5.01199 14.8591 5.38146 14.9395 5.75896 14.9395C6.25694 14.9395 6.71075 14.819 7.12038 14.578C7.53804 14.3371 7.86735 14.0118 8.10831 13.6021C8.3573 13.1925 8.48179 12.7387 8.48179 12.2407C8.48179 11.7427 8.3573 11.2889 8.10831 10.8793C7.86735 10.4697 7.53804 10.1444 7.12038 9.90342C6.71075 9.66246 6.25694 9.54198 5.75896 9.54198C5.14853 9.54198 4.65055 9.64639 4.26502 9.85522C3.87948 10.056 3.59033 10.2488 3.39757 10.4335L0.626542 9.59017L1.15665 0.361452H10.6263V3.42163H2.96384L4.12044 2.33731L3.759 8.28899L3.2048 7.61431C3.63853 7.2609 4.13249 7.00388 4.6867 6.84324C5.2409 6.6826 5.75896 6.60228 6.24088 6.60228C7.33322 6.60228 8.29304 6.84726 9.12034 7.33721C9.95566 7.81912 10.6062 8.48578 11.0721 9.33716C11.546 10.1805 11.7829 11.1484 11.7829 12.2407C11.7829 13.3331 11.4978 14.321 10.9275 15.2045C10.3573 16.08 9.60627 16.7788 8.67456 17.3008C7.74285 17.8149 6.73083 18.0719 5.63848 18.0719ZM20.2374 18.0719C19.0647 18.0719 18.0206 17.835 17.1049 17.3611C16.1973 16.8792 15.4825 16.2205 14.9604 15.3852C14.4463 14.5419 14.1893 13.5821 14.1893 12.5058C14.1893 11.5901 14.3941 10.7267 14.8038 9.91546C15.2214 9.10424 15.8198 8.4416 16.5989 7.92755L16.5266 8.93958C15.9403 8.36931 15.4784 7.76692 15.1411 7.13239C14.8118 6.49787 14.6471 5.78302 14.6471 4.98786C14.6471 3.98386 14.8841 3.10838 15.358 2.36141C15.8399 1.61444 16.4985 1.03614 17.3338 0.626506C18.1772 0.208845 19.145 1.43623e-05 20.2374 1.43623e-05C21.3297 1.43623e-05 22.2936 0.208845 23.1289 0.626506C23.9722 1.03614 24.6309 1.61444 25.1047 2.36141C25.5867 3.10838 25.8276 3.98386 25.8276 4.98786C25.8276 5.78302 25.671 6.49787 25.3577 7.13239C25.0445 7.75888 24.5666 8.36931 23.924 8.96368V7.95165C24.6871 8.43357 25.2734 9.08416 25.683 9.90342C26.1007 10.7227 26.3095 11.5901 26.3095 12.5058C26.3095 13.5821 26.0485 14.5419 25.5264 15.3852C25.0043 16.2205 24.2855 16.8792 23.3698 17.3611C22.4542 17.835 21.41 18.0719 20.2374 18.0719ZM20.2374 14.9876C21.0084 14.9876 21.6349 14.7788 22.1169 14.3612C22.5988 13.9435 22.8397 13.325 22.8397 12.5058C22.8397 11.6945 22.5988 11.0761 22.1169 10.6504C21.6349 10.2167 21.0084 9.9998 20.2374 9.9998C19.4663 9.9998 18.8438 10.2167 18.3699 10.6504C17.8961 11.0761 17.6591 11.6945 17.6591 12.5058C17.6591 13.325 17.8961 13.9435 18.3699 14.3612C18.8438 14.7788 19.4663 14.9876 20.2374 14.9876ZM20.2374 6.89143C20.8639 6.89143 21.3739 6.73882 21.7675 6.43361C22.161 6.12036 22.3578 5.63845 22.3578 4.98786C22.3578 4.33727 22.161 3.85535 21.7675 3.54211C21.3739 3.22083 20.8639 3.06019 20.2374 3.06019C19.6109 3.06019 19.1009 3.22083 18.7073 3.54211C18.3137 3.85535 18.1169 4.33727 18.1169 4.98786C18.1169 5.63845 18.3137 6.12036 18.7073 6.43361C19.1009 6.73882 19.6109 6.89143 20.2374 6.89143ZM31.8527 17.7105L29.6841 15.5418L44.8645 0.361452L47.0331 2.55418L31.8527 17.7105ZM43.4187 18.0719C42.6236 18.0719 41.8967 17.8791 41.2381 17.4936C40.5875 17.1 40.0654 16.578 39.6718 15.9274C39.2783 15.2688 39.0815 14.5379 39.0815 13.7347C39.0815 12.9475 39.2823 12.2247 39.6839 11.566C40.0855 10.9074 40.6156 10.3813 41.2742 9.98775C41.9328 9.59419 42.6477 9.3974 43.4187 9.3974C44.2139 9.3974 44.9408 9.59419 45.5994 9.98775C46.258 10.3733 46.7801 10.8954 47.1656 11.554C47.5592 12.2046 47.756 12.9315 47.756 13.7347C47.756 14.5379 47.5592 15.2688 47.1656 15.9274C46.7801 16.578 46.258 17.1 45.5994 17.4936C44.9408 17.8791 44.2139 18.0719 43.4187 18.0719ZM43.4187 15.3009C43.6999 15.3009 43.9569 15.2286 44.1898 15.084C44.4308 14.9395 44.6235 14.7507 44.7681 14.5178C44.9127 14.2768 44.985 14.0158 44.985 13.7347C44.985 13.4535 44.9127 13.1965 44.7681 12.9636C44.6235 12.7226 44.4308 12.5299 44.1898 12.3853C43.9569 12.2407 43.6999 12.1684 43.4187 12.1684C43.1376 12.1684 42.8766 12.2407 42.6356 12.3853C42.4027 12.5299 42.2139 12.7226 42.0694 12.9636C41.9248 13.1965 41.8525 13.4535 41.8525 13.7347C41.8525 14.0158 41.9248 14.2768 42.0694 14.5178C42.2139 14.7507 42.4027 14.9395 42.6356 15.084C42.8766 15.2286 43.1376 15.3009 43.4187 15.3009ZM33.2985 8.67453C32.5033 8.67453 31.7764 8.48176 31.1178 8.09623C30.4592 7.70266 29.9331 7.18058 29.5395 6.52999C29.154 5.87137 28.9612 5.14047 28.9612 4.33727C28.9612 3.55014 29.162 2.82726 29.5636 2.16864C29.9652 1.51002 30.4953 0.983928 31.1539 0.590362C31.8126 0.196797 32.5274 1.43623e-05 33.2985 1.43623e-05C34.0936 1.43623e-05 34.8165 0.196797 35.4671 0.590362C36.1257 0.975897 36.6518 1.49797 37.0454 2.15659C37.4389 2.80718 37.6357 3.53407 37.6357 4.33727C37.6357 5.14047 37.4389 5.87137 37.0454 6.52999C36.6518 7.18058 36.1257 7.70266 35.4671 8.09623C34.8165 8.48176 34.0936 8.67453 33.2985 8.67453ZM33.2985 5.9035C33.5796 5.9035 33.8366 5.83121 34.0695 5.68664C34.3105 5.54206 34.5033 5.35331 34.6478 5.12039C34.7924 4.87943 34.8647 4.61839 34.8647 4.33727C34.8647 4.05615 34.7924 3.79913 34.6478 3.5662C34.5033 3.32524 34.3105 3.13248 34.0695 2.9879C33.8366 2.84333 33.5796 2.77104 33.2985 2.77104C33.0173 2.77104 32.7563 2.84333 32.5154 2.9879C32.2824 3.13248 32.0937 3.32524 31.9491 3.5662C31.8045 3.79913 31.7322 4.05615 31.7322 4.33727C31.7322 4.61839 31.8045 4.87943 31.9491 5.12039C32.0937 5.35331 32.2824 5.54206 32.5154 5.68664C32.7563 5.83121 33.0173 5.9035 33.2985 5.9035Z" fill="url(#paint0_linear_2_2096)"/>
<path d="M60.8903 18.0719C59.5891 18.0719 58.4606 17.7787 57.5048 17.1924C56.549 16.6061 55.8101 15.7989 55.288 14.7708C54.774 13.7347 54.5169 12.5419 54.5169 11.1925C54.5169 9.83514 54.782 8.6424 55.3121 7.61431C55.8422 6.57819 56.5852 5.77499 57.541 5.20472C58.4968 4.62642 59.6132 4.33727 60.8903 4.33727C62.1915 4.33727 63.32 4.63044 64.2758 5.21677C65.2316 5.8031 65.9705 6.61031 66.4926 7.6384C67.0147 8.66649 67.2757 9.85121 67.2757 11.1925C67.2757 12.5499 67.0107 13.7467 66.4805 14.7828C65.9585 15.8109 65.2195 16.6181 64.2637 17.2045C63.3079 17.7828 62.1835 18.0719 60.8903 18.0719ZM60.8903 15.6985C62.1353 15.6985 63.063 15.2808 63.6734 14.4455C64.2918 13.6021 64.6011 12.5178 64.6011 11.1925C64.6011 9.83514 64.2878 8.75083 63.6613 7.9396C63.0429 7.12034 62.1192 6.71071 60.8903 6.71071C60.047 6.71071 59.3522 6.90348 58.806 7.28901C58.2598 7.66652 57.8542 8.19261 57.5892 8.86729C57.3241 9.53395 57.1916 10.309 57.1916 11.1925C57.1916 12.558 57.5048 13.6503 58.1313 14.4696C58.7578 15.2888 59.6775 15.6985 60.8903 15.6985ZM70.875 17.7105V4.24089C70.875 3.91158 70.8871 3.56219 70.9112 3.19272C70.9353 2.81521 71.0035 2.44574 71.116 2.08431C71.2365 1.71484 71.4333 1.37749 71.7063 1.07228C72.0357 0.710842 72.3971 0.453819 72.7907 0.301212C73.1842 0.148605 73.5738 0.060253 73.9593 0.036157C74.3529 0.0120619 74.7143 1.43623e-05 75.0436 1.43623e-05H76.6821V2.07226H75.1641C74.5697 2.07226 74.124 2.22085 73.8268 2.51803C73.5376 2.80718 73.3931 3.22083 73.3931 3.75897V17.7105H70.875ZM68.7185 6.72276V4.69871H76.6821V6.72276H68.7185ZM89.0508 18.0719C87.8059 18.0719 86.7617 17.7707 85.9184 17.1683C85.075 16.5579 84.4365 15.7346 84.0028 14.6985C83.569 13.6624 83.3522 12.4937 83.3522 11.1925C83.3522 9.89137 83.565 8.72272 83.9907 7.6866C84.4244 6.65047 85.059 5.83523 85.8943 5.24086C86.7376 4.63847 87.7738 4.33727 89.0027 4.33727C90.2235 4.33727 91.2757 4.63847 92.1592 5.24086C93.0508 5.83523 93.7375 6.65047 94.2194 7.6866C94.7013 8.71469 94.9423 9.88334 94.9423 11.1925C94.9423 12.4937 94.7013 13.6664 94.2194 14.7105C93.7455 15.7467 93.0668 16.5659 92.1833 17.1683C91.3078 17.7707 90.2637 18.0719 89.0508 18.0719ZM82.9305 17.7105V0.361452H85.4606V8.34923H85.1714V17.7105H82.9305ZM88.7015 15.7949C89.5046 15.7949 90.1673 15.59 90.6894 15.1804C91.2195 14.7708 91.613 14.2206 91.8701 13.5298C92.1351 12.8311 92.2676 12.052 92.2676 11.1925C92.2676 10.3412 92.1351 9.57009 91.8701 8.87934C91.613 8.18859 91.2155 7.6384 90.6773 7.22877C90.1392 6.81914 89.4524 6.61433 88.6171 6.61433C87.83 6.61433 87.1794 6.8071 86.6654 7.19263C86.1593 7.57816 85.7818 8.11631 85.5328 8.80705C85.2919 9.4978 85.1714 10.293 85.1714 11.1925C85.1714 12.0921 85.2919 12.8873 85.5328 13.578C85.7738 14.2688 86.1553 14.8109 86.6774 15.2045C87.1995 15.5981 87.8742 15.7949 88.7015 15.7949ZM102.265 18.0599C101.365 18.0599 100.61 17.9153 100 17.6261C99.3895 17.337 98.8916 16.9595 98.506 16.4936C98.1285 16.0198 97.8394 15.5057 97.6386 14.9515C97.4378 14.3973 97.3012 13.8551 97.2289 13.325C97.1567 12.7949 97.1205 12.3291 97.1205 11.9275V4.69871H99.6747V11.0962C99.6747 11.6022 99.7148 12.1243 99.7952 12.6624C99.8835 13.1925 100.044 13.6865 100.277 14.1443C100.518 14.6021 100.851 14.9716 101.277 15.2527C101.711 15.5338 102.273 15.6744 102.964 15.6744C103.414 15.6744 103.839 15.6021 104.241 15.4575C104.642 15.3049 104.992 15.0639 105.289 14.7346C105.594 14.4053 105.831 13.9716 106 13.4335C106.177 12.8953 106.265 12.2407 106.265 11.4696L107.831 12.06C107.831 13.2407 107.61 14.2848 107.168 15.1925C106.727 16.092 106.092 16.7948 105.265 17.3008C104.438 17.8069 103.438 18.0599 102.265 18.0599ZM106.566 17.7105V13.9515H106.265V4.69871H108.807V17.7105H106.566ZM116.921 18.0599C115.339 18.0599 114.049 17.7105 113.054 17.0117C112.058 16.3129 111.447 15.329 111.222 14.06L113.8 13.6624C113.961 14.3371 114.331 14.8712 114.909 15.2647C115.495 15.6503 116.222 15.843 117.09 15.843C117.877 15.843 118.491 15.6824 118.933 15.3611C119.383 15.0399 119.608 14.5981 119.608 14.0359C119.608 13.7065 119.527 13.4415 119.367 13.2407C119.214 13.0319 118.889 12.8351 118.391 12.6503C117.893 12.4656 117.134 12.2367 116.114 11.9636C114.997 11.6745 114.11 11.3652 113.451 11.0359C112.801 10.6986 112.335 10.309 112.054 9.86727C111.78 9.41748 111.644 8.87533 111.644 8.2408C111.644 7.45367 111.853 6.76694 112.27 6.1806C112.688 5.59427 113.274 5.14047 114.029 4.81919C114.792 4.49791 115.684 4.33727 116.704 4.33727C117.7 4.33727 118.588 4.49389 119.367 4.80714C120.146 5.12039 120.776 5.56616 121.258 6.14446C121.74 6.71473 122.029 7.3854 122.126 8.15647L119.547 8.62634C119.459 7.99984 119.166 7.50588 118.668 7.14444C118.17 6.783 117.523 6.58622 116.728 6.55409C115.965 6.52196 115.347 6.65047 114.873 6.93962C114.399 7.22074 114.162 7.61029 114.162 8.10827C114.162 8.39742 114.25 8.6424 114.427 8.8432C114.612 9.044 114.965 9.23676 115.487 9.4215C116.009 9.60623 116.78 9.82711 117.8 10.0841C118.893 10.3653 119.76 10.6785 120.403 11.0239C121.045 11.3612 121.503 11.7668 121.776 12.2407C122.057 12.7066 122.198 13.2728 122.198 13.9395C122.198 15.2246 121.728 16.2326 120.788 16.9635C119.857 17.6944 118.567 18.0599 116.921 18.0599ZM124.864 2.56622V0.120494H127.382V2.56622H124.864ZM124.864 17.7105V4.69871H127.382V17.7105H124.864ZM139.891 17.7105V11.313C139.891 10.807 139.847 10.2889 139.759 9.75884C139.678 9.2207 139.518 8.72272 139.277 8.2649C139.044 7.80708 138.71 7.43761 138.277 7.15649C137.851 6.87537 137.293 6.73481 136.602 6.73481C136.152 6.73481 135.726 6.81111 135.325 6.96372C134.923 7.1083 134.57 7.34524 134.265 7.67455C133.967 8.00386 133.731 8.43758 133.554 8.97572C133.385 9.51387 133.301 10.1685 133.301 10.9395L131.735 10.3492C131.735 9.16849 131.955 8.12835 132.397 7.22877C132.839 6.32116 133.474 5.61435 134.301 5.10834C135.128 4.60232 136.128 4.34932 137.301 4.34932C138.2 4.34932 138.955 4.49389 139.566 4.78304C140.176 5.07219 140.67 5.45371 141.048 5.9276C141.433 6.39345 141.726 6.90348 141.927 7.45769C142.128 8.01189 142.264 8.55405 142.337 9.08416C142.409 9.61427 142.445 10.0801 142.445 10.4817V17.7105H139.891ZM130.747 17.7105V4.69871H133V8.45766H133.301V17.7105H130.747ZM150.949 18.0719C149.655 18.0719 148.519 17.7908 147.539 17.2286C146.567 16.6583 145.808 15.8671 145.262 14.8551C144.724 13.8351 144.455 12.6544 144.455 11.313C144.455 9.89137 144.72 8.65846 145.25 7.61431C145.788 6.57015 146.535 5.76294 147.491 5.19267C148.447 4.6224 149.559 4.33727 150.828 4.33727C152.153 4.33727 153.282 4.6465 154.214 5.26496C155.145 5.87539 155.84 6.74686 156.298 7.87936C156.764 9.01187 156.948 10.3572 156.852 11.9154H154.334V10.9998C154.318 9.48977 154.029 8.37333 153.467 7.65045C152.912 6.92758 152.065 6.56614 150.925 6.56614C149.663 6.56614 148.716 6.96372 148.081 7.75888C147.447 8.55405 147.129 9.70262 147.129 11.2046C147.129 12.6343 147.447 13.7427 148.081 14.5298C148.716 15.3089 149.631 15.6985 150.828 15.6985C151.615 15.6985 152.294 15.5218 152.864 15.1684C153.443 14.8069 153.892 14.2929 154.214 13.6262L156.683 14.4093C156.177 15.574 155.41 16.4776 154.382 17.1201C153.354 17.7547 152.21 18.0719 150.949 18.0719ZM146.31 11.9154V9.95161H155.599V11.9154H146.31ZM164.29 18.0599C162.708 18.0599 161.419 17.7105 160.423 17.0117C159.427 16.3129 158.816 15.329 158.591 14.06L161.17 13.6624C161.33 14.3371 161.7 14.8712 162.278 15.2647C162.864 15.6503 163.591 15.843 164.459 15.843C165.246 15.843 165.86 15.6824 166.302 15.3611C166.752 15.0399 166.977 14.5981 166.977 14.0359C166.977 13.7065 166.896 13.4415 166.736 13.2407C166.583 13.0319 166.258 12.8351 165.76 12.6503C165.262 12.4656 164.503 12.2367 163.483 11.9636C162.366 11.6745 161.479 11.3652 160.82 11.0359C160.17 10.6986 159.704 10.309 159.423 9.86727C159.15 9.41748 159.013 8.87533 159.013 8.2408C159.013 7.45367 159.222 6.76694 159.64 6.1806C160.057 5.59427 160.643 5.14047 161.399 4.81919C162.162 4.49791 163.053 4.33727 164.073 4.33727C165.069 4.33727 165.957 4.49389 166.736 4.80714C167.515 5.12039 168.145 5.56616 168.627 6.14446C169.109 6.71473 169.398 7.3854 169.495 8.15647L166.916 8.62634C166.828 7.99984 166.535 7.50588 166.037 7.14444C165.539 6.783 164.892 6.58622 164.097 6.55409C163.334 6.52196 162.716 6.65047 162.242 6.93962C161.768 7.22074 161.531 7.61029 161.531 8.10827C161.531 8.39742 161.619 8.6424 161.796 8.8432C161.981 9.044 162.334 9.23676 162.856 9.4215C163.378 9.60623 164.149 9.82711 165.17 10.0841C166.262 10.3653 167.129 10.6785 167.772 11.0239C168.414 11.3612 168.872 11.7668 169.145 12.2407C169.426 12.7066 169.567 13.2728 169.567 13.9395C169.567 15.2246 169.097 16.2326 168.157 16.9635C167.226 17.6944 165.937 18.0599 164.29 18.0599ZM176.968 18.0599C175.385 18.0599 174.096 17.7105 173.1 17.0117C172.104 16.3129 171.494 15.329 171.269 14.06L173.847 13.6624C174.008 14.3371 174.377 14.8712 174.956 15.2647C175.542 15.6503 176.269 15.843 177.136 15.843C177.923 15.843 178.538 15.6824 178.98 15.3611C179.429 15.0399 179.654 14.5981 179.654 14.0359C179.654 13.7065 179.574 13.4415 179.413 13.2407C179.261 13.0319 178.935 12.8351 178.437 12.6503C177.939 12.4656 177.18 12.2367 176.16 11.9636C175.044 11.6745 174.156 11.3652 173.498 11.0359C172.847 10.6986 172.381 10.309 172.1 9.86727C171.827 9.41748 171.691 8.87533 171.691 8.2408C171.691 7.45367 171.899 6.76694 172.317 6.1806C172.735 5.59427 173.321 5.14047 174.076 4.81919C174.839 4.49791 175.731 4.33727 176.751 4.33727C177.747 4.33727 178.634 4.49389 179.413 4.80714C180.192 5.12039 180.823 5.56616 181.305 6.14446C181.787 6.71473 182.076 7.3854 182.172 8.15647L179.594 8.62634C179.506 7.99984 179.213 7.50588 178.715 7.14444C178.217 6.783 177.57 6.58622 176.775 6.55409C176.012 6.52196 175.393 6.65047 174.919 6.93962C174.446 7.22074 174.209 7.61029 174.209 8.10827C174.209 8.39742 174.297 8.6424 174.474 8.8432C174.658 9.044 175.012 9.23676 175.534 9.4215C176.056 9.60623 176.827 9.82711 177.847 10.0841C178.939 10.3653 179.807 10.6785 180.449 11.0239C181.092 11.3612 181.55 11.7668 181.823 12.2407C182.104 12.7066 182.245 13.2728 182.245 13.9395C182.245 15.2246 181.775 16.2326 180.835 16.9635C179.903 17.6944 178.614 18.0599 176.968 18.0599ZM190.44 18.0719C189.147 18.0719 188.011 17.7908 187.031 17.2286C186.059 16.6583 185.3 15.8671 184.754 14.8551C184.216 13.8351 183.947 12.6544 183.947 11.313C183.947 9.89137 184.212 8.65846 184.742 7.61431C185.28 6.57015 186.027 5.76294 186.983 5.19267C187.938 4.6224 189.051 4.33727 190.32 4.33727C191.645 4.33727 192.774 4.6465 193.705 5.26496C194.637 5.87539 195.332 6.74686 195.79 7.87936C196.256 9.01187 196.44 10.3572 196.344 11.9154H193.826V10.9998C193.81 9.48977 193.521 8.37333 192.958 7.65045C192.404 6.92758 191.557 6.56614 190.416 6.56614C189.155 6.56614 188.208 6.96372 187.573 7.75888C186.938 8.55405 186.621 9.70262 186.621 11.2046C186.621 12.6343 186.938 13.7427 187.573 14.5298C188.208 15.3089 189.123 15.6985 190.32 15.6985C191.107 15.6985 191.786 15.5218 192.356 15.1684C192.934 14.8069 193.384 14.2929 193.705 13.6262L196.175 14.4093C195.669 15.574 194.902 16.4776 193.874 17.1201C192.846 17.7547 191.701 18.0719 190.44 18.0719ZM185.802 11.9154V9.95161H195.091V11.9154H185.802ZM203.782 18.0599C202.2 18.0599 200.91 17.7105 199.914 17.0117C198.918 16.3129 198.308 15.329 198.083 14.06L200.661 13.6624C200.822 14.3371 201.192 14.8712 201.77 15.2647C202.356 15.6503 203.083 15.843 203.95 15.843C204.738 15.843 205.352 15.6824 205.794 15.3611C206.244 15.0399 206.469 14.5981 206.469 14.0359C206.469 13.7065 206.388 13.4415 206.228 13.2407C206.075 13.0319 205.75 12.8351 205.252 12.6503C204.754 12.4656 203.995 12.2367 202.975 11.9636C201.858 11.6745 200.971 11.3652 200.312 11.0359C199.661 10.6986 199.196 10.309 198.914 9.86727C198.641 9.41748 198.505 8.87533 198.505 8.2408C198.505 7.45367 198.714 6.76694 199.131 6.1806C199.549 5.59427 200.135 5.14047 200.89 4.81919C201.653 4.49791 202.545 4.33727 203.565 4.33727C204.561 4.33727 205.448 4.49389 206.228 4.80714C207.007 5.12039 207.637 5.56616 208.119 6.14446C208.601 6.71473 208.89 7.3854 208.987 8.15647L206.408 8.62634C206.32 7.99984 206.027 7.50588 205.529 7.14444C205.031 6.783 204.384 6.58622 203.589 6.55409C202.826 6.52196 202.208 6.65047 201.734 6.93962C201.26 7.22074 201.023 7.61029 201.023 8.10827C201.023 8.39742 201.111 8.6424 201.288 8.8432C201.473 9.044 201.826 9.23676 202.348 9.4215C202.87 9.60623 203.641 9.82711 204.661 10.0841C205.754 10.3653 206.621 10.6785 207.264 11.0239C207.906 11.3612 208.364 11.7668 208.637 12.2407C208.918 12.7066 209.059 13.2728 209.059 13.9395C209.059 15.2246 208.589 16.2326 207.649 16.9635C206.717 17.6944 205.428 18.0599 203.782 18.0599ZM0.481966 50.8423V37.8305H2.72288V40.9871L2.40964 40.5775C2.57028 40.1598 2.77911 39.7783 3.03613 39.4329C3.29315 39.0795 3.59033 38.7903 3.92768 38.5654C4.25699 38.3245 4.62244 38.1398 5.02404 38.0112C5.43367 37.8747 5.85133 37.7944 6.27702 37.7703C6.70272 37.7382 7.11235 37.7582 7.50591 37.8305V40.1919C7.08022 40.0795 6.60633 40.0473 6.08426 40.0955C5.57021 40.1437 5.09633 40.3084 4.6626 40.5895C4.25297 40.8546 3.92768 41.1758 3.68672 41.5533C3.45379 41.9308 3.28512 42.3525 3.1807 42.8184C3.07629 43.2762 3.02408 43.7621 3.02408 44.2762V50.8423H0.481966ZM15.095 51.2037C13.8018 51.2037 12.6653 50.9226 11.6854 50.3604C10.7135 49.7901 9.95453 48.999 9.40836 47.9869C8.87021 46.9669 8.60114 45.7862 8.60114 44.4448C8.60114 43.0232 8.8662 41.7903 9.39631 40.7461C9.93445 39.702 10.6814 38.8948 11.6372 38.3245C12.593 37.7542 13.7055 37.4691 14.9745 37.4691C16.2998 37.4691 17.4283 37.7783 18.36 38.3968C19.2917 39.0072 19.9864 39.8787 20.4443 41.0112C20.9101 42.1437 21.0949 43.489 20.9985 45.0472H18.4805V44.1316C18.4644 42.6216 18.1752 41.5051 17.613 40.7823C17.0588 40.0594 16.2114 39.698 15.0709 39.698C13.8099 39.698 12.8621 40.0955 12.2276 40.8907C11.593 41.6859 11.2758 42.8344 11.2758 44.3364C11.2758 45.7661 11.593 46.8745 12.2276 47.6616C12.8621 48.4407 13.7777 48.8303 14.9745 48.8303C15.7616 48.8303 16.4403 48.6536 17.0106 48.3002C17.5889 47.9387 18.0387 47.4247 18.36 46.758L20.8298 47.5412C20.3238 48.7058 19.5567 49.6094 18.5286 50.2519C17.5006 50.8865 16.356 51.2037 15.095 51.2037ZM10.4565 45.0472V43.0834H19.7455V45.0472H10.4565ZM28.8219 56.9867C28.1231 56.9867 27.4444 56.8783 26.7858 56.6614C26.1352 56.4446 25.5409 56.1233 25.0027 55.6976C24.4646 55.2799 24.0188 54.7619 23.6654 54.1434L25.9906 52.9627C26.2718 53.5169 26.6734 53.9225 27.1954 54.1796C27.7175 54.4366 28.2677 54.5651 28.846 54.5651C29.5608 54.5651 30.1713 54.4366 30.6773 54.1796C31.1833 53.9306 31.5648 53.5531 31.8218 53.0471C32.0869 52.5411 32.2154 51.9146 32.2074 51.1676V47.5291H32.5086V37.8305H34.7374V51.1917C34.7374 51.5371 34.7254 51.8664 34.7013 52.1796C34.6772 52.4929 34.633 52.8061 34.5688 53.1194C34.384 53.9948 34.0306 54.7177 33.5086 55.288C32.9945 55.8583 32.3359 56.2839 31.5327 56.5651C30.7375 56.8462 29.8339 56.9867 28.8219 56.9867ZM28.6291 51.2037C27.4163 51.2037 26.3681 50.9025 25.4846 50.3001C24.6091 49.6977 23.9304 48.8785 23.4485 47.8424C22.9746 46.7982 22.7377 45.6255 22.7377 44.3244C22.7377 43.0152 22.9787 41.8465 23.4606 40.8184C23.9425 39.7823 24.6252 38.967 25.5087 38.3727C26.4003 37.7703 27.4565 37.4691 28.6773 37.4691C29.9062 37.4691 30.9383 37.7703 31.7737 38.3727C32.617 38.967 33.2515 39.7823 33.6772 40.8184C34.111 41.8545 34.3278 43.0232 34.3278 44.3244C34.3278 45.6255 34.111 46.7942 33.6772 47.8303C33.2435 48.8664 32.605 49.6897 31.7616 50.3001C30.9182 50.9025 29.8741 51.2037 28.6291 51.2037ZM28.9785 48.9267C29.8058 48.9267 30.4805 48.7299 31.0026 48.3363C31.5247 47.9428 31.9062 47.4006 32.1471 46.7099C32.3881 46.0191 32.5086 45.2239 32.5086 44.3244C32.5086 43.4248 32.3841 42.6296 32.1351 41.9389C31.8941 41.2481 31.5166 40.71 31.0026 40.3244C30.4966 39.9389 29.85 39.7461 29.0629 39.7461C28.2275 39.7461 27.5408 39.951 27.0027 40.3606C26.4645 40.7702 26.0629 41.3204 25.7979 42.0112C25.5409 42.7019 25.4123 43.473 25.4123 44.3244C25.4123 45.1838 25.5409 45.9629 25.7979 46.6617C26.0629 47.3524 26.4565 47.9026 26.9786 48.3122C27.5087 48.7219 28.1753 48.9267 28.9785 48.9267ZM37.8795 50.8423V37.8305H40.1204V40.9871L39.8072 40.5775C39.9678 40.1598 40.1766 39.7783 40.4337 39.4329C40.6907 39.0795 40.9879 38.7903 41.3252 38.5654C41.6545 38.3245 42.02 38.1398 42.4216 38.0112C42.8312 37.8747 43.2489 37.7944 43.6746 37.7703C44.1003 37.7382 44.5099 37.7582 44.9034 37.8305V40.1919C44.4778 40.0795 44.0039 40.0473 43.4818 40.0955C42.9677 40.1437 42.4939 40.3084 42.0601 40.5895C41.6505 40.8546 41.3252 41.1758 41.0843 41.5533C40.8513 41.9308 40.6827 42.3525 40.5782 42.8184C40.4738 43.2762 40.4216 43.7621 40.4216 44.2762V50.8423H37.8795ZM52.4925 51.2037C51.1994 51.2037 50.0629 50.9226 49.083 50.3604C48.1111 49.7901 47.3521 48.999 46.8059 47.9869C46.2678 46.9669 45.9987 45.7862 45.9987 44.4448C45.9987 43.0232 46.2637 41.7903 46.7938 40.7461C47.332 39.702 48.079 38.8948 49.0348 38.3245C49.9906 37.7542 51.103 37.4691 52.372 37.4691C53.6973 37.4691 54.8258 37.7783 55.7575 38.3968C56.6892 39.0072 57.384 39.8787 57.8418 41.0112C58.3077 42.1437 58.4924 43.489 58.396 45.0472H55.878V44.1316C55.8619 42.6216 55.5728 41.5051 55.0105 40.7823C54.4563 40.0594 53.609 39.698 52.4684 39.698C51.2074 39.698 50.2596 40.0955 49.6251 40.8907C48.9906 41.6859 48.6733 42.8344 48.6733 44.3364C48.6733 45.7661 48.9906 46.8745 49.6251 47.6616C50.2596 48.4407 51.1753 48.8303 52.372 48.8303C53.1592 48.8303 53.8379 48.6536 54.4081 48.3002C54.9864 47.9387 55.4362 47.4247 55.7575 46.758L58.2273 47.5412C57.7213 48.7058 56.9543 49.6094 55.9262 50.2519C54.8981 50.8865 53.7535 51.2037 52.4925 51.2037ZM47.8541 45.0472V43.0834H57.143V45.0472H47.8541ZM68.3037 50.8423C67.4845 51.0029 66.6813 51.0712 65.8942 51.0471C65.107 51.023 64.4042 50.8704 63.7858 50.5893C63.1673 50.3082 62.7014 49.8664 62.3882 49.264C62.1071 48.7259 61.9545 48.1797 61.9304 47.6255C61.9143 47.0633 61.9063 46.4287 61.9063 45.7219V34.2161H64.4364V45.6014C64.4364 46.1235 64.4404 46.5773 64.4484 46.9629C64.4645 47.3484 64.5488 47.6737 64.7014 47.9387C64.9906 48.4367 65.4484 48.7219 66.0749 48.7941C66.7094 48.8584 67.4523 48.8303 68.3037 48.7098V50.8423ZM59.4124 39.8546V37.8305H68.3037V39.8546H59.4124ZM80.3648 51.1917C78.7826 51.1917 77.4934 50.8423 76.4975 50.1435C75.5015 49.4447 74.8911 48.4608 74.6662 47.1918L77.2444 46.7942C77.4051 47.4689 77.7745 48.003 78.3528 48.3966C78.9392 48.7821 79.6661 48.9749 80.5335 48.9749C81.3207 48.9749 81.9351 48.8142 82.3769 48.4929C82.8266 48.1717 83.0515 47.7299 83.0515 47.1677C83.0515 46.8384 82.9712 46.5733 82.8106 46.3725C82.658 46.1637 82.3327 45.9669 81.8347 45.7822C81.3367 45.5974 80.5777 45.3685 79.5576 45.0954C78.4412 44.8063 77.5537 44.497 76.895 44.1677C76.2445 43.8304 75.7786 43.4408 75.4975 42.9991C75.2244 42.5493 75.0879 42.0071 75.0879 41.3726C75.0879 40.5855 75.2967 39.8988 75.7143 39.3124C76.132 38.7261 76.7183 38.2723 77.4733 37.951C78.2364 37.6297 79.1279 37.4691 80.148 37.4691C81.1439 37.4691 82.0315 37.6257 82.8106 37.939C83.5897 38.2522 84.2202 38.698 84.7021 39.2763C85.184 39.8465 85.4732 40.5172 85.5696 41.2883L82.9913 41.7582C82.9029 41.1317 82.6098 40.6377 82.1118 40.2763C81.6138 39.9148 80.9672 39.718 80.1721 39.6859C79.409 39.6538 78.7906 39.7823 78.3167 40.0714C77.8428 40.3526 77.6059 40.7421 77.6059 41.2401C77.6059 41.5292 77.6942 41.7742 77.8709 41.975C78.0557 42.1758 78.4091 42.3686 78.9311 42.5533C79.4532 42.7381 80.2243 42.9589 81.2443 43.216C82.3367 43.4971 83.2041 43.8103 83.8467 44.1557C84.4893 44.493 84.9471 44.8986 85.2202 45.3725C85.5013 45.8384 85.6418 46.4046 85.6418 47.0713C85.6418 48.3564 85.172 49.3644 84.2322 50.0953C83.3005 50.8262 82.0114 51.1917 80.3648 51.1917ZM93.7172 51.2037C92.416 51.2037 91.2875 50.9106 90.3317 50.3242C89.3759 49.7379 88.6369 48.9307 88.1149 47.9026C87.6008 46.8665 87.3438 45.6737 87.3438 44.3244C87.3438 42.967 87.6089 41.7742 88.139 40.7461C88.6691 39.71 89.412 38.9068 90.3678 38.3365C91.3236 37.7582 92.4401 37.4691 93.7172 37.4691C95.0183 37.4691 96.1468 37.7623 97.1026 38.3486C98.0584 38.9349 98.7974 39.7421 99.3194 40.7702C99.8415 41.7983 100.103 42.983 100.103 44.3244C100.103 45.6818 99.8375 46.8785 99.3074 47.9146C98.7853 48.9427 98.0464 49.7499 97.0906 50.3363C96.1348 50.9146 95.0103 51.2037 93.7172 51.2037ZM93.7172 48.8303C94.9621 48.8303 95.8898 48.4126 96.5002 47.5773C97.1187 46.7339 97.4279 45.6496 97.4279 44.3244C97.4279 42.967 97.1147 41.8826 96.4882 41.0714C95.8697 40.2522 94.9461 39.8425 93.7172 39.8425C92.8738 39.8425 92.179 40.0353 91.6329 40.4208C91.0867 40.7983 90.6811 41.3244 90.416 41.9991C90.151 42.6658 90.0184 43.4408 90.0184 44.3244C90.0184 45.6898 90.3317 46.7821 90.9582 47.6014C91.5847 48.4207 92.5043 48.8303 93.7172 48.8303ZM103.702 50.8423V37.3727C103.702 37.0434 103.714 36.694 103.738 36.3245C103.762 35.947 103.83 35.5776 103.943 35.2161C104.063 34.8467 104.26 34.5093 104.533 34.2041C104.862 33.8427 105.224 33.5856 105.618 33.433C106.011 33.2804 106.401 33.1921 106.786 33.168C107.18 33.1439 107.541 33.1318 107.87 33.1318H109.509V35.2041H107.991C107.397 35.2041 106.951 35.3527 106.654 35.6498C106.364 35.939 106.22 36.3526 106.22 36.8908V50.8423H103.702ZM101.545 39.8546V37.8305H109.509V39.8546H101.545ZM118.632 50.8423C117.813 51.0029 117.01 51.0712 116.223 51.0471C115.435 51.023 114.733 50.8704 114.114 50.5893C113.496 50.3082 113.03 49.8664 112.717 49.264C112.435 48.7259 112.283 48.1797 112.259 47.6255C112.243 47.0633 112.235 46.4287 112.235 45.7219V34.2161H114.765V45.6014C114.765 46.1235 114.769 46.5773 114.777 46.9629C114.793 47.3484 114.877 47.6737 115.03 47.9387C115.319 48.4367 115.777 48.7219 116.403 48.7941C117.038 48.8584 117.781 48.8303 118.632 48.7098V50.8423ZM109.741 39.8546V37.8305H118.632V39.8546H109.741ZM123.906 50.8423L119.93 37.8185L122.424 37.8305L125.146 46.758L127.893 37.8305H130.062L132.809 46.758L135.532 37.8305H138.014L134.038 50.8423H132.014L128.978 41.4208L125.93 50.8423H123.906ZM142.875 51.2037C141.912 51.2037 141.104 51.027 140.454 50.6736C139.803 50.3122 139.309 49.8383 138.972 49.252C138.643 48.6576 138.478 48.007 138.478 47.3002C138.478 46.6416 138.594 46.0633 138.827 45.5653C139.06 45.0673 139.406 44.6456 139.863 44.3003C140.321 43.9469 140.883 43.6617 141.55 43.4449C142.128 43.2762 142.783 43.1276 143.514 42.9991C144.245 42.8706 145.012 42.7501 145.815 42.6377C146.626 42.5252 147.429 42.4128 148.225 42.3003L147.309 42.8063C147.325 41.7863 147.108 41.0313 146.658 40.5413C146.217 40.0433 145.454 39.7943 144.369 39.7943C143.687 39.7943 143.06 39.955 142.49 40.2763C141.92 40.5895 141.522 41.1116 141.297 41.8425L138.948 41.1196C139.269 40.0032 139.879 39.1156 140.779 38.457C141.687 37.7984 142.891 37.4691 144.393 37.4691C145.558 37.4691 146.57 37.6699 147.429 38.0715C148.297 38.465 148.931 39.0915 149.333 39.951C149.542 40.3767 149.67 40.8264 149.719 41.3003C149.767 41.7742 149.791 42.2842 149.791 42.8304V50.8423H147.562V47.8665L147.996 48.252C147.458 49.248 146.771 49.9909 145.936 50.4809C145.108 50.9628 144.088 51.2037 142.875 51.2037ZM143.321 49.1435C144.036 49.1435 144.65 49.019 145.164 48.77C145.679 48.513 146.092 48.1877 146.405 47.7942C146.719 47.4006 146.923 46.991 147.02 46.5653C147.156 46.1797 147.233 45.746 147.249 45.2641C147.273 44.7822 147.285 44.3966 147.285 44.1075L148.104 44.4087C147.309 44.5292 146.586 44.6376 145.936 44.734C145.285 44.8304 144.695 44.9268 144.164 45.0231C143.642 45.1115 143.177 45.2199 142.767 45.3484C142.422 45.4689 142.112 45.6135 141.839 45.7822C141.574 45.9508 141.361 46.1556 141.201 46.3966C141.048 46.6376 140.972 46.9307 140.972 47.2761C140.972 47.6134 141.056 47.9267 141.225 48.2158C141.393 48.497 141.65 48.7219 141.996 48.8905C142.341 49.0592 142.783 49.1435 143.321 49.1435ZM152.678 50.8423V37.8305H154.919V40.9871L154.606 40.5775C154.767 40.1598 154.976 39.7783 155.233 39.4329C155.49 39.0795 155.787 38.7903 156.124 38.5654C156.453 38.3245 156.819 38.1398 157.221 38.0112C157.63 37.8747 158.048 37.7944 158.473 37.7703C158.899 37.7382 159.309 37.7582 159.702 37.8305V40.1919C159.277 40.0795 158.803 40.0473 158.281 40.0955C157.767 40.1437 157.293 40.3084 156.859 40.5895C156.449 40.8546 156.124 41.1758 155.883 41.5533C155.65 41.9308 155.482 42.3525 155.377 42.8184C155.273 43.2762 155.221 43.7621 155.221 44.2762V50.8423H152.678ZM167.291 51.2037C165.998 51.2037 164.862 50.9226 163.882 50.3604C162.91 49.7901 162.151 48.999 161.605 47.9869C161.067 46.9669 160.798 45.7862 160.798 44.4448C160.798 43.0232 161.063 41.7903 161.593 40.7461C162.131 39.702 162.878 38.8948 163.834 38.3245C164.789 37.7542 165.902 37.4691 167.171 37.4691C168.496 37.4691 169.625 37.7783 170.556 38.3968C171.488 39.0072 172.183 39.8787 172.641 41.0112C173.107 42.1437 173.291 43.489 173.195 45.0472H170.677V44.1316C170.661 42.6216 170.372 41.5051 169.809 40.7823C169.255 40.0594 168.408 39.698 167.267 39.698C166.006 39.698 165.059 40.0955 164.424 40.8907C163.79 41.6859 163.472 42.8344 163.472 44.3364C163.472 45.7661 163.79 46.8745 164.424 47.6616C165.059 48.4407 165.974 48.8303 167.171 48.8303C167.958 48.8303 168.637 48.6536 169.207 48.3002C169.785 47.9387 170.235 47.4247 170.556 46.758L173.026 47.5412C172.52 48.7058 171.753 49.6094 170.725 50.2519C169.697 50.8865 168.552 51.2037 167.291 51.2037ZM162.653 45.0472V43.0834H171.942V45.0472H162.653ZM186.348 51.2037C185.103 51.2037 184.059 50.9025 183.216 50.3001C182.372 49.6897 181.734 48.8664 181.3 47.8303C180.866 46.7942 180.65 45.6255 180.65 44.3244C180.65 43.0232 180.862 41.8545 181.288 40.8184C181.722 39.7823 182.356 38.967 183.192 38.3727C184.035 37.7703 185.071 37.4691 186.3 37.4691C187.521 37.4691 188.573 37.7703 189.457 38.3727C190.348 38.967 191.035 39.7823 191.517 40.8184C191.999 41.8465 192.24 43.0152 192.24 44.3244C192.24 45.6255 191.999 46.7982 191.517 47.8424C191.043 48.8785 190.364 49.6977 189.481 50.3001C188.605 50.9025 187.561 51.2037 186.348 51.2037ZM180.228 50.8423V33.4933H182.758V41.481H182.469V50.8423H180.228ZM185.999 48.9267C186.802 48.9267 187.465 48.7219 187.987 48.3122C188.517 47.9026 188.91 47.3524 189.167 46.6617C189.433 45.9629 189.565 45.1838 189.565 44.3244C189.565 43.473 189.433 42.7019 189.167 42.0112C188.91 41.3204 188.513 40.7702 187.975 40.3606C187.437 39.951 186.75 39.7461 185.915 39.7461C185.127 39.7461 184.477 39.9389 183.963 40.3244C183.457 40.71 183.079 41.2481 182.83 41.9389C182.589 42.6296 182.469 43.4248 182.469 44.3244C182.469 45.2239 182.589 46.0191 182.83 46.7099C183.071 47.4006 183.453 47.9428 183.975 48.3363C184.497 48.7299 185.172 48.9267 185.999 48.9267ZM199.562 51.1917C198.663 51.1917 197.908 51.0471 197.297 50.758C196.687 50.4688 196.189 50.0913 195.803 49.6255C195.426 49.1516 195.137 48.6375 194.936 48.0833C194.735 47.5291 194.599 46.987 194.526 46.4568C194.454 45.9267 194.418 45.4609 194.418 45.0593V37.8305H196.972V44.228C196.972 44.734 197.012 45.2561 197.093 45.7942C197.181 46.3243 197.342 46.8183 197.574 47.2761C197.815 47.7339 198.149 48.1034 198.574 48.3845C199.008 48.6656 199.57 48.8062 200.261 48.8062C200.711 48.8062 201.137 48.7339 201.538 48.5893C201.94 48.4367 202.289 48.1958 202.586 47.8665C202.892 47.5371 203.129 47.1034 203.297 46.5653C203.474 46.0271 203.562 45.3725 203.562 44.6015L205.129 45.1918C205.129 46.3725 204.908 47.4167 204.466 48.3243C204.024 49.2239 203.39 49.9267 202.562 50.4327C201.735 50.9387 200.735 51.1917 199.562 51.1917ZM203.864 50.8423V47.0833H203.562V37.8305H206.104V50.8423H203.864ZM211.002 56.6253L213.52 49.77L213.556 51.7941L207.881 37.8305H210.508L214.748 48.6134H213.977L218.025 37.8305H220.58L213.399 56.6253H211.002ZM227.202 51.1917C225.62 51.1917 224.33 50.8423 223.334 50.1435C222.339 49.4447 221.728 48.4608 221.503 47.1918L224.081 46.7942C224.242 47.4689 224.612 48.003 225.19 48.3966C225.776 48.7821 226.503 48.9749 227.371 48.9749C228.158 48.9749 228.772 48.8142 229.214 48.4929C229.664 48.1717 229.889 47.7299 229.889 47.1677C229.889 46.8384 229.808 46.5733 229.648 46.3725C229.495 46.1637 229.17 45.9669 228.672 45.7822C228.174 45.5974 227.415 45.3685 226.395 45.0954C225.278 44.8063 224.391 44.497 223.732 44.1677C223.081 43.8304 222.616 43.4408 222.334 42.9991C222.061 42.5493 221.925 42.0071 221.925 41.3726C221.925 40.5855 222.134 39.8988 222.551 39.3124C222.969 38.7261 223.555 38.2723 224.31 37.951C225.073 37.6297 225.965 37.4691 226.985 37.4691C227.981 37.4691 228.868 37.6257 229.648 37.939C230.427 38.2522 231.057 38.698 231.539 39.2763C232.021 39.8465 232.31 40.5172 232.407 41.2883L229.828 41.7582C229.74 41.1317 229.447 40.6377 228.949 40.2763C228.451 39.9148 227.804 39.718 227.009 39.6859C226.246 39.6538 225.628 39.7823 225.154 40.0714C224.68 40.3526 224.443 40.7421 224.443 41.2401C224.443 41.5292 224.531 41.7742 224.708 41.975C224.893 42.1758 225.246 42.3686 225.768 42.5533C226.29 42.7381 227.061 42.9589 228.081 43.216C229.174 43.4971 230.041 43.8103 230.684 44.1557C231.326 44.493 231.784 44.8986 232.057 45.3725C232.338 45.8384 232.479 46.4046 232.479 47.0713C232.479 48.3564 232.009 49.3644 231.069 50.0953C230.138 50.8262 228.848 51.1917 227.202 51.1917ZM235.337 50.8423V48.1797H238V50.8423H235.337Z" fill="white"/>
<defs>
<linearGradient id="paint0_linear_2_2096" x1="127.307" y1="-8.39338" x2="127.307" y2="57.8703" gradientUnits="userSpaceOnUse">
<stop offset="0.274038" stop-color="#FFD382"/>
<stop offset="0.774038" stop-color="#FFA527"/>
</linearGradient>
</defs>
</svg>
