<svg width="307" height="112" viewBox="0 0 307 112" fill="none" xmlns="http://www.w3.org/2000/svg">
<path d="M9.35443 23.52V0.480019H22.7944V3.32802H12.2024V10.576H20.8744V13.424H12.2024V23.52H9.35443ZM25.6669 3.18402V0.240019H28.5149V3.18402H25.6669ZM25.6669 23.52V6.24002H28.5149V23.52H25.6669ZM45.2997 23.52V14.864C45.2997 14.0427 45.225 13.2534 45.0757 12.496C44.937 11.7387 44.6863 11.0614 44.3237 10.464C43.9717 9.85602 43.4917 9.37602 42.8837 9.02402C42.2863 8.67202 41.529 8.49602 40.6117 8.49602C39.897 8.49602 39.2463 8.61869 38.6597 8.86402C38.0837 9.09869 37.5877 9.46135 37.1717 9.95202C36.7557 10.4427 36.4303 11.0614 36.1957 11.808C35.9717 12.544 35.8597 13.4134 35.8597 14.416L33.9877 13.84C33.9877 12.1654 34.2863 10.7307 34.8837 9.53602C35.4917 8.33069 36.3397 7.40802 37.4277 6.76802C38.5263 6.11735 39.817 5.79202 41.2997 5.79202C42.4197 5.79202 43.3743 5.96802 44.1637 6.32002C44.953 6.67202 45.609 7.14135 46.1317 7.72802C46.6543 8.30402 47.065 8.95469 47.3637 9.68002C47.6623 10.3947 47.8703 11.1254 47.9877 11.872C48.1157 12.608 48.1797 13.3067 48.1797 13.968V23.52H45.2997ZM32.9797 23.52V6.24002H35.5397V10.864H35.8597V23.52H32.9797ZM58.6472 24C57.0365 24 55.6552 23.6 54.5032 22.8C53.3512 21.9894 52.4605 20.896 51.8312 19.52C51.2125 18.144 50.9032 16.592 50.9032 14.864C50.9032 13.136 51.2125 11.584 51.8312 10.208C52.4605 8.83202 53.3512 7.74935 54.5032 6.96002C55.6552 6.16002 57.0312 5.76002 58.6312 5.76002C60.2632 5.76002 61.6338 6.15469 62.7432 6.94402C63.8525 7.73335 64.6898 8.81602 65.2552 10.192C65.8312 11.568 66.1192 13.1254 66.1192 14.864C66.1192 16.5814 65.8312 18.1334 65.2552 19.52C64.6898 20.896 63.8525 21.9894 62.7432 22.8C61.6338 23.6 60.2685 24 58.6472 24ZM58.9992 21.392C60.1618 21.392 61.1165 21.1147 61.8632 20.56C62.6098 19.9947 63.1592 19.2214 63.5112 18.24C63.8738 17.248 64.0552 16.1227 64.0552 14.864C64.0552 13.584 63.8738 12.4587 63.5112 11.488C63.1592 10.5067 62.6152 9.74402 61.8792 9.20002C61.1432 8.64535 60.2098 8.36802 59.0792 8.36802C57.9058 8.36802 56.9352 8.65602 56.1672 9.23202C55.4098 9.80802 54.8445 10.5867 54.4712 11.568C54.1085 12.5494 53.9272 13.648 53.9272 14.864C53.9272 16.0907 54.1138 17.2 54.4872 18.192C54.8605 19.1734 55.4205 19.952 56.1672 20.528C56.9245 21.104 57.8685 21.392 58.9992 21.392ZM64.0552 23.52V10.8H63.7352V0.480019H66.5992V23.52H64.0552ZM86.4962 23.52C85.4722 23.7227 84.4588 23.8027 83.4562 23.76C82.4642 23.728 81.5788 23.5307 80.8002 23.168C80.0215 22.7947 79.4295 22.2187 79.0242 21.44C78.6828 20.7574 78.4962 20.0694 78.4642 19.376C78.4428 18.672 78.4322 17.8774 78.4322 16.992V1.44002H81.2802V16.864C81.2802 17.568 81.2855 18.1707 81.2962 18.672C81.3175 19.1734 81.4295 19.6054 81.6322 19.968C82.0162 20.6507 82.6242 21.0507 83.4562 21.168C84.2988 21.2854 85.3122 21.2534 86.4962 21.072V23.52ZM74.9282 8.59202V6.24002H86.4962V8.59202H74.9282ZM101.988 23.52V14.864C101.988 14.0427 101.914 13.2534 101.764 12.496C101.626 11.7387 101.375 11.0614 101.012 10.464C100.66 9.85602 100.18 9.37602 99.5724 9.02402C98.9751 8.67202 98.2178 8.49602 97.3004 8.49602C96.5858 8.49602 95.9351 8.61869 95.3484 8.86402C94.7724 9.09869 94.2764 9.46135 93.8604 9.95202C93.4444 10.4427 93.1191 11.0614 92.8844 11.808C92.6604 12.544 92.5484 13.4134 92.5484 14.416L90.6764 13.84C90.6764 12.1654 90.9751 10.7307 91.5724 9.53602C92.1804 8.33069 93.0284 7.40802 94.1164 6.76802C95.2151 6.11735 96.5058 5.79202 97.9884 5.79202C99.1084 5.79202 100.063 5.96802 100.852 6.32002C101.642 6.67202 102.298 7.14135 102.82 7.72802C103.343 8.30402 103.754 8.95469 104.052 9.68002C104.351 10.3947 104.559 11.1254 104.676 11.872C104.804 12.608 104.868 13.3067 104.868 13.968V23.52H101.988ZM89.6684 23.52V0.480019H92.2284V13.2H92.5484V23.52H89.6684ZM116.196 24C114.5 24 113.018 23.6267 111.748 22.88C110.49 22.1227 109.508 21.072 108.804 19.728C108.1 18.3734 107.748 16.7947 107.748 14.992C107.748 13.104 108.095 11.472 108.788 10.096C109.482 8.70935 110.447 7.64269 111.684 6.89602C112.932 6.13869 114.394 5.76002 116.068 5.76002C117.807 5.76002 119.284 6.16002 120.5 6.96002C121.727 7.76002 122.644 8.90135 123.252 10.384C123.871 11.8667 124.138 13.632 124.052 15.68H121.172V14.656C121.14 12.5334 120.708 10.9494 119.876 9.90402C119.044 8.84802 117.807 8.32002 116.164 8.32002C114.404 8.32002 113.066 8.88535 112.148 10.016C111.231 11.1467 110.772 12.768 110.772 14.88C110.772 16.9174 111.231 18.496 112.148 19.616C113.066 20.736 114.372 21.296 116.068 21.296C117.21 21.296 118.202 21.0347 119.044 20.512C119.887 19.9894 120.548 19.2374 121.028 18.256L123.764 19.2C123.092 20.7254 122.079 21.9094 120.724 22.752C119.38 23.584 117.871 24 116.196 24ZM109.812 15.68V13.392H122.58V15.68H109.812ZM133.381 23.52V0.480019H142.357C143.733 0.480019 144.906 0.762685 145.877 1.32802C146.858 1.89335 147.605 2.64002 148.117 3.56802C148.639 4.48535 148.901 5.47735 148.901 6.54402C148.901 7.79202 148.581 8.88535 147.941 9.82402C147.301 10.7627 146.437 11.408 145.349 11.76L145.317 10.976C146.799 11.3707 147.951 12.096 148.773 13.152C149.594 14.208 150.005 15.4667 150.005 16.928C150.005 18.272 149.727 19.4347 149.173 20.416C148.629 21.3974 147.839 22.16 146.805 22.704C145.781 23.248 144.565 23.52 143.157 23.52H133.381ZM136.261 20.8H142.613C143.466 20.8 144.229 20.6454 144.901 20.336C145.573 20.016 146.101 19.568 146.485 18.992C146.879 18.416 147.077 17.7227 147.077 16.912C147.077 16.1334 146.901 15.4347 146.549 14.816C146.207 14.1974 145.722 13.7067 145.093 13.344C144.474 12.9707 143.754 12.784 142.933 12.784H136.261V20.8ZM136.261 10.096H142.325C143.007 10.096 143.621 9.95202 144.165 9.66402C144.719 9.36535 145.157 8.94935 145.477 8.41602C145.807 7.88269 145.973 7.25869 145.973 6.54402C145.973 5.55202 145.637 4.74135 144.965 4.11202C144.293 3.48269 143.413 3.16802 142.325 3.16802H136.261V10.096ZM160.361 24C158.665 24 157.183 23.6267 155.913 22.88C154.655 22.1227 153.673 21.072 152.969 19.728C152.265 18.3734 151.913 16.7947 151.913 14.992C151.913 13.104 152.26 11.472 152.953 10.096C153.647 8.70935 154.612 7.64269 155.849 6.89602C157.097 6.13869 158.559 5.76002 160.233 5.76002C161.972 5.76002 163.449 6.16002 164.665 6.96002C165.892 7.76002 166.809 8.90135 167.417 10.384C168.036 11.8667 168.303 13.632 168.217 15.68H165.337V14.656C165.305 12.5334 164.873 10.9494 164.041 9.90402C163.209 8.84802 161.972 8.32002 160.329 8.32002C158.569 8.32002 157.231 8.88535 156.313 10.016C155.396 11.1467 154.937 12.768 154.937 14.88C154.937 16.9174 155.396 18.496 156.313 19.616C157.231 20.736 158.537 21.296 160.233 21.296C161.375 21.296 162.367 21.0347 163.209 20.512C164.052 19.9894 164.713 19.2374 165.193 18.256L167.929 19.2C167.257 20.7254 166.244 21.9094 164.889 22.752C163.545 23.584 162.036 24 160.361 24ZM153.977 15.68V13.392H166.745V15.68H153.977ZM177.987 23.984C175.929 23.984 174.238 23.536 172.915 22.64C171.603 21.7334 170.798 20.4694 170.499 18.848L173.411 18.384C173.646 19.3227 174.185 20.0694 175.027 20.624C175.87 21.168 176.915 21.44 178.163 21.44C179.347 21.44 180.275 21.1947 180.947 20.704C181.619 20.2134 181.955 19.5467 181.955 18.704C181.955 18.2134 181.843 17.8187 181.619 17.52C181.395 17.2107 180.931 16.9227 180.227 16.656C179.534 16.3894 178.483 16.0694 177.075 15.696C175.55 15.2907 174.35 14.8694 173.475 14.432C172.601 13.9947 171.977 13.488 171.603 12.912C171.23 12.336 171.043 11.6374 171.043 10.816C171.043 9.80269 171.321 8.91735 171.875 8.16002C172.43 7.39202 173.203 6.80002 174.195 6.38402C175.198 5.96802 176.361 5.76002 177.683 5.76002C178.995 5.76002 180.169 5.96802 181.203 6.38402C182.238 6.80002 183.07 7.39202 183.699 8.16002C184.339 8.91735 184.718 9.80269 184.835 10.816L181.923 11.344C181.785 10.416 181.337 9.68535 180.579 9.15202C179.833 8.61869 178.867 8.33602 177.683 8.30402C176.563 8.26135 175.651 8.45869 174.947 8.89602C174.254 9.33335 173.907 9.92535 173.907 10.672C173.907 11.088 174.035 11.4454 174.291 11.744C174.558 12.0427 175.043 12.3254 175.747 12.592C176.462 12.8587 177.497 13.1627 178.851 13.504C180.377 13.888 181.577 14.3094 182.451 14.768C183.337 15.216 183.966 15.7494 184.339 16.368C184.713 16.976 184.899 17.728 184.899 18.624C184.899 20.288 184.286 21.6 183.059 22.56C181.833 23.5094 180.142 23.984 177.987 23.984ZM197.756 23.52C196.732 23.7227 195.719 23.8027 194.716 23.76C193.724 23.728 192.839 23.5307 192.06 23.168C191.282 22.7947 190.69 22.2187 190.284 21.44C189.943 20.7574 189.756 20.0694 189.724 19.376C189.703 18.672 189.692 17.8774 189.692 16.992V1.44002H192.54V16.864C192.54 17.568 192.546 18.1707 192.556 18.672C192.578 19.1734 192.69 19.6054 192.892 19.968C193.276 20.6507 193.884 21.0507 194.716 21.168C195.559 21.2854 196.572 21.2534 197.756 21.072V23.52ZM186.188 8.59202V6.24002H197.756V8.59202H186.188Z" fill="url(#paint0_linear_2_1902)"/>
<path d="M216.359 24C214.78 24 213.34 23.7227 212.039 23.168C210.737 22.6134 209.617 21.8187 208.679 20.784C207.74 19.7387 207.015 18.48 206.503 17.008C206.001 15.5254 205.751 13.856 205.751 12C205.751 9.54669 206.188 7.42402 207.063 5.63202C207.937 3.84002 209.169 2.45869 210.759 1.48802C212.348 0.506685 214.215 0.0160179 216.359 0.0160179C218.94 0.0160179 221.02 0.618685 222.599 1.82402C224.177 3.01869 225.265 4.65602 225.863 6.73602L222.983 7.32802C222.503 5.93069 221.713 4.81602 220.615 3.98402C219.516 3.15202 218.145 2.73602 216.503 2.73602C214.785 2.72535 213.356 3.10935 212.215 3.88802C211.084 4.65602 210.231 5.73868 209.655 7.13602C209.079 8.53335 208.785 10.1547 208.775 12C208.764 13.8347 209.047 15.4454 209.623 16.832C210.199 18.2187 211.057 19.3067 212.199 20.096C213.351 20.8747 214.785 21.2694 216.503 21.28C217.985 21.2907 219.233 21.008 220.247 20.432C221.26 19.856 222.044 19.024 222.599 17.936C223.153 16.848 223.489 15.5414 223.607 14.016H218.711V11.664H226.615C226.647 11.8774 226.663 12.1334 226.663 12.432C226.673 12.72 226.679 12.9174 226.679 13.024C226.679 15.1254 226.284 17.008 225.495 18.672C224.716 20.3254 223.559 21.6267 222.023 22.576C220.497 23.5254 218.609 24 216.359 24ZM229.874 23.52V1.90735e-05H232.722V23.52H229.874ZM244.563 24C242.846 24 241.363 23.6107 240.115 22.832C238.878 22.0534 237.923 20.976 237.251 19.6C236.579 18.224 236.243 16.6454 236.243 14.864C236.243 13.0507 236.585 11.4614 237.267 10.096C237.95 8.73069 238.915 7.66935 240.163 6.91202C241.411 6.14402 242.878 5.76002 244.563 5.76002C246.291 5.76002 247.779 6.14935 249.027 6.92802C250.275 7.69602 251.23 8.76802 251.891 10.144C252.563 11.5094 252.899 13.0827 252.899 14.864C252.899 16.6667 252.563 18.256 251.891 19.632C251.219 20.9974 250.259 22.0694 249.011 22.848C247.763 23.616 246.281 24 244.563 24ZM244.563 21.296C246.355 21.296 247.689 20.6987 248.563 19.504C249.438 18.3094 249.875 16.7627 249.875 14.864C249.875 12.912 249.433 11.36 248.547 10.208C247.662 9.04535 246.334 8.46402 244.563 8.46402C243.358 8.46402 242.366 8.73602 241.587 9.28002C240.809 9.82402 240.227 10.576 239.843 11.536C239.459 12.496 239.267 13.6054 239.267 14.864C239.267 16.8054 239.715 18.3627 240.611 19.536C241.507 20.7094 242.825 21.296 244.563 21.296ZM264.038 24C262.417 24 261.051 23.6 259.942 22.8C258.833 21.9894 257.99 20.896 257.414 19.52C256.849 18.1334 256.566 16.5814 256.566 14.864C256.566 13.1254 256.849 11.568 257.414 10.192C257.99 8.81602 258.833 7.73335 259.942 6.94402C261.062 6.15469 262.433 5.76002 264.054 5.76002C265.654 5.76002 267.03 6.16002 268.182 6.96002C269.345 7.74935 270.235 8.83202 270.854 10.208C271.473 11.584 271.782 13.136 271.782 14.864C271.782 16.592 271.473 18.144 270.854 19.52C270.235 20.896 269.345 21.9894 268.182 22.8C267.03 23.6 265.649 24 264.038 24ZM256.086 23.52V0.480019H258.95V10.8H258.63V23.52H256.086ZM263.686 21.392C264.827 21.392 265.771 21.104 266.518 20.528C267.265 19.952 267.825 19.1734 268.198 18.192C268.571 17.2 268.758 16.0907 268.758 14.864C268.758 13.648 268.571 12.5494 268.198 11.568C267.835 10.5867 267.27 9.80802 266.502 9.23202C265.745 8.65602 264.779 8.36802 263.606 8.36802C262.486 8.36802 261.558 8.64535 260.822 9.20002C260.086 9.74402 259.537 10.5067 259.174 11.488C258.811 12.4587 258.63 13.584 258.63 14.864C258.63 16.1227 258.806 17.248 259.158 18.24C259.521 19.2214 260.075 19.9947 260.822 20.56C261.569 21.1147 262.523 21.392 263.686 21.392ZM279.881 24C278.591 24 277.508 23.7654 276.633 23.296C275.769 22.816 275.113 22.1867 274.665 21.408C274.228 20.6294 274.009 19.776 274.009 18.848C274.009 17.9414 274.18 17.1574 274.521 16.496C274.873 15.824 275.364 15.2694 275.993 14.832C276.623 14.384 277.375 14.032 278.249 13.776C279.071 13.552 279.988 13.36 281.001 13.2C282.025 13.0294 283.06 12.8747 284.105 12.736C285.151 12.5974 286.127 12.464 287.033 12.336L286.009 12.928C286.041 11.392 285.732 10.256 285.081 9.52002C284.441 8.78402 283.332 8.41602 281.753 8.41602C280.708 8.41602 279.791 8.65602 279.001 9.13602C278.223 9.60535 277.673 10.3734 277.353 11.44L274.649 10.624C275.065 9.10935 275.871 7.92002 277.065 7.05602C278.26 6.19202 279.833 5.76002 281.785 5.76002C283.353 5.76002 284.697 6.04269 285.817 6.60802C286.948 7.16269 287.759 8.00535 288.249 9.13602C288.495 9.66935 288.649 10.2507 288.713 10.88C288.777 11.4987 288.809 12.1494 288.809 12.832V23.52H286.281V19.376L286.873 19.76C286.223 21.1574 285.311 22.2134 284.137 22.928C282.975 23.6427 281.556 24 279.881 24ZM280.313 21.616C281.337 21.616 282.223 21.4347 282.969 21.072C283.727 20.6987 284.335 20.2134 284.793 19.616C285.252 19.008 285.551 18.3467 285.689 17.632C285.849 17.0987 285.935 16.5067 285.945 15.856C285.967 15.1947 285.977 14.688 285.977 14.336L286.969 14.768C286.041 14.896 285.129 15.0187 284.233 15.136C283.337 15.2534 282.489 15.3814 281.689 15.52C280.889 15.648 280.169 15.8027 279.529 15.984C279.06 16.1334 278.617 16.3254 278.201 16.56C277.796 16.7947 277.465 17.0987 277.209 17.472C276.964 17.8347 276.841 18.288 276.841 18.832C276.841 19.3014 276.959 19.7494 277.193 20.176C277.439 20.6027 277.812 20.9494 278.313 21.216C278.825 21.4827 279.492 21.616 280.313 21.616ZM292.969 23.52V1.90735e-05H295.817V23.52H292.969ZM9.29605 68C7.66405 68 6.19205 67.7227 4.88005 67.168C3.57872 66.6134 2.50138 65.824 1.64805 64.8C0.805384 63.7654 0.256051 62.544 5.06639e-05 61.136L2.94405 60.672C3.31738 62.1227 4.09072 63.2587 5.26405 64.08C6.44805 64.8907 7.84005 65.296 9.44005 65.296C10.4747 65.296 11.4081 65.136 12.2401 64.816C13.0827 64.4854 13.7494 64.016 14.2401 63.408C14.7307 62.8 14.9761 62.08 14.9761 61.248C14.9761 60.736 14.8854 60.2987 14.7041 59.936C14.5334 59.5627 14.2934 59.248 13.9841 58.992C13.6854 58.7254 13.3441 58.5014 12.9601 58.32C12.5761 58.1387 12.1761 57.9894 11.7601 57.872L5.88805 56.128C5.24805 55.936 4.62938 55.696 4.03205 55.408C3.43472 55.1094 2.90138 54.7414 2.43205 54.304C1.96272 53.856 1.58938 53.3227 1.31205 52.704C1.03472 52.0747 0.896051 51.3334 0.896051 50.48C0.896051 49.1147 1.24805 47.952 1.95205 46.992C2.66672 46.0214 3.63205 45.28 4.84805 44.768C6.06405 44.256 7.43472 44.0054 8.96005 44.016C10.5067 44.0267 11.8881 44.304 13.1041 44.848C14.3307 45.3814 15.3441 46.1494 16.1441 47.152C16.9547 48.1547 17.4987 49.3547 17.7761 50.752L14.7521 51.28C14.5921 50.3414 14.2347 49.536 13.6801 48.864C13.1361 48.1814 12.4534 47.6587 11.6321 47.296C10.8107 46.9227 9.90938 46.7307 8.92805 46.72C7.98938 46.7094 7.14138 46.8587 6.38405 47.168C5.62672 47.4774 5.02405 47.9094 4.57605 48.464C4.12805 49.008 3.90405 49.6374 3.90405 50.352C3.90405 51.056 4.10672 51.6267 4.51205 52.064C4.91738 52.4907 5.41338 52.832 6.00005 53.088C6.59738 53.3334 7.17872 53.536 7.74405 53.696L12.1281 54.96C12.6294 55.0987 13.2054 55.2907 13.8561 55.536C14.5174 55.7814 15.1574 56.128 15.7761 56.576C16.3947 57.0134 16.9067 57.6 17.3121 58.336C17.7174 59.0614 17.9201 59.9787 17.9201 61.088C17.9201 62.1974 17.6961 63.184 17.2481 64.048C16.8107 64.912 16.1974 65.6374 15.4081 66.224C14.6187 66.8 13.7014 67.2374 12.6561 67.536C11.6107 67.8454 10.4907 68 9.29605 68ZM28.3163 68C26.599 68 25.1163 67.6107 23.8683 66.832C22.631 66.0534 21.6763 64.976 21.0043 63.6C20.3323 62.224 19.9963 60.6454 19.9963 58.864C19.9963 57.0507 20.3376 55.4614 21.0203 54.096C21.703 52.7307 22.6683 51.6694 23.9163 50.912C25.1643 50.144 26.631 49.76 28.3163 49.76C30.0443 49.76 31.5323 50.1494 32.7803 50.928C34.0283 51.696 34.983 52.768 35.6443 54.144C36.3163 55.5094 36.6523 57.0827 36.6523 58.864C36.6523 60.6667 36.3163 62.256 35.6443 63.632C34.9723 64.9974 34.0123 66.0694 32.7643 66.848C31.5163 67.616 30.0336 68 28.3163 68ZM28.3163 65.296C30.1083 65.296 31.4416 64.6987 32.3163 63.504C33.191 62.3094 33.6283 60.7627 33.6283 58.864C33.6283 56.912 33.1856 55.36 32.3003 54.208C31.415 53.0454 30.087 52.464 28.3163 52.464C27.111 52.464 26.119 52.736 25.3403 53.28C24.5616 53.824 23.9803 54.576 23.5963 55.536C23.2123 56.496 23.0203 57.6054 23.0203 58.864C23.0203 60.8054 23.4683 62.3627 24.3643 63.536C25.2603 64.7094 26.5776 65.296 28.3163 65.296ZM41.5031 67.52V49.296C41.5031 48.848 41.5244 48.3947 41.5671 47.936C41.6097 47.4667 41.7057 47.0134 41.8551 46.576C42.0044 46.128 42.2497 45.7174 42.5911 45.344C42.9857 44.9067 43.4177 44.5974 43.8871 44.416C44.3564 44.224 44.8311 44.1067 45.3111 44.064C45.8017 44.0214 46.2657 44 46.7031 44H48.8951V46.368H46.8631C46.0204 46.368 45.3911 46.576 44.9751 46.992C44.5591 47.3974 44.3511 48.016 44.3511 48.848V67.52H41.5031ZM38.5751 52.592V50.24H48.8951V52.592H38.5751ZM60.7768 67.52C59.7528 67.7227 58.7395 67.8027 57.7368 67.76C56.7448 67.728 55.8595 67.5307 55.0808 67.168C54.3021 66.7947 53.7101 66.2187 53.3048 65.44C52.9635 64.7574 52.7768 64.0694 52.7448 63.376C52.7235 62.672 52.7128 61.8774 52.7128 60.992V45.44H55.5608V60.864C55.5608 61.568 55.5661 62.1707 55.5768 62.672C55.5981 63.1734 55.7101 63.6054 55.9128 63.968C56.2968 64.6507 56.9048 65.0507 57.7368 65.168C58.5795 65.2854 59.5928 65.2534 60.7768 65.072V67.52ZM49.2088 52.592V50.24H60.7768V52.592H49.2088ZM67.6451 67.52L62.3651 50.224L65.1971 50.24L69.0531 62.88L72.9411 50.24H75.4531L79.3251 62.88L83.1971 50.24H86.0131L80.7331 67.52H78.3651L74.1891 54.384L70.0131 67.52H67.6451ZM92.5258 68C91.2351 68 90.1525 67.7654 89.2778 67.296C88.4138 66.816 87.7578 66.1867 87.3098 65.408C86.8725 64.6294 86.6538 63.776 86.6538 62.848C86.6538 61.9414 86.8245 61.1574 87.1658 60.496C87.5178 59.824 88.0085 59.2694 88.6378 58.832C89.2671 58.384 90.0191 58.032 90.8938 57.776C91.7151 57.552 92.6325 57.36 93.6458 57.2C94.6698 57.0294 95.7045 56.8747 96.7498 56.736C97.7951 56.5974 98.7711 56.464 99.6778 56.336L98.6538 56.928C98.6858 55.392 98.3765 54.256 97.7258 53.52C97.0858 52.784 95.9765 52.416 94.3978 52.416C93.3525 52.416 92.4351 52.656 91.6458 53.136C90.8671 53.6054 90.3178 54.3734 89.9978 55.44L87.2938 54.624C87.7098 53.1094 88.5151 51.92 89.7098 51.056C90.9045 50.192 92.4778 49.76 94.4298 49.76C95.9978 49.76 97.3418 50.0427 98.4618 50.608C99.5925 51.1627 100.403 52.0054 100.894 53.136C101.139 53.6694 101.294 54.2507 101.358 54.88C101.422 55.4987 101.454 56.1494 101.454 56.832V67.52H98.9258V63.376L99.5178 63.76C98.8671 65.1574 97.9551 66.2134 96.7818 66.928C95.6191 67.6427 94.2005 68 92.5258 68ZM92.9578 65.616C93.9818 65.616 94.8671 65.4347 95.6138 65.072C96.3711 64.6987 96.9791 64.2134 97.4378 63.616C97.8965 63.008 98.1951 62.3467 98.3338 61.632C98.4938 61.0987 98.5791 60.5067 98.5898 59.856C98.6111 59.1947 98.6218 58.688 98.6218 58.336L99.6138 58.768C98.6858 58.896 97.7738 59.0187 96.8778 59.136C95.9818 59.2534 95.1338 59.3814 94.3338 59.52C93.5338 59.648 92.8138 59.8027 92.1738 59.984C91.7045 60.1334 91.2618 60.3254 90.8458 60.56C90.4405 60.7947 90.1098 61.0987 89.8538 61.472C89.6085 61.8347 89.4858 62.288 89.4858 62.832C89.4858 63.3014 89.6031 63.7494 89.8378 64.176C90.0831 64.6027 90.4565 64.9494 90.9578 65.216C91.4698 65.4827 92.1365 65.616 92.9578 65.616ZM105.294 67.52V50.24H107.838V54.416L107.422 53.872C107.624 53.3387 107.886 52.848 108.206 52.4C108.536 51.952 108.904 51.584 109.31 51.296C109.758 50.9334 110.264 50.656 110.83 50.464C111.395 50.272 111.971 50.16 112.558 50.128C113.144 50.0854 113.694 50.1227 114.206 50.24V52.912C113.608 52.752 112.952 52.7094 112.238 52.784C111.523 52.8587 110.862 53.12 110.254 53.568C109.699 53.9627 109.267 54.4427 108.958 55.008C108.659 55.5734 108.451 56.1867 108.334 56.848C108.216 57.4987 108.158 58.1654 108.158 58.848V67.52H105.294ZM124.087 68C122.391 68 120.908 67.6267 119.639 66.88C118.38 66.1227 117.399 65.072 116.695 63.728C115.991 62.3734 115.639 60.7947 115.639 58.992C115.639 57.104 115.985 55.472 116.679 54.096C117.372 52.7094 118.337 51.6427 119.575 50.896C120.823 50.1387 122.284 49.76 123.959 49.76C125.697 49.76 127.175 50.16 128.391 50.96C129.617 51.76 130.535 52.9014 131.143 54.384C131.761 55.8667 132.028 57.632 131.943 59.68H129.063V58.656C129.031 56.5334 128.599 54.9494 127.767 53.904C126.935 52.848 125.697 52.32 124.055 52.32C122.295 52.32 120.956 52.8854 120.039 54.016C119.121 55.1467 118.663 56.768 118.663 58.88C118.663 60.9174 119.121 62.496 120.039 63.616C120.956 64.736 122.263 65.296 123.959 65.296C125.1 65.296 126.092 65.0347 126.935 64.512C127.777 63.9894 128.439 63.2374 128.919 62.256L131.655 63.2C130.983 64.7254 129.969 65.9094 128.615 66.752C127.271 67.584 125.761 68 124.087 68ZM117.703 59.68V57.392H130.471V59.68H117.703ZM149.447 68C147.815 68 146.343 67.7227 145.031 67.168C143.73 66.6134 142.653 65.824 141.799 64.8C140.957 63.7654 140.407 62.544 140.151 61.136L143.095 60.672C143.469 62.1227 144.242 63.2587 145.415 64.08C146.599 64.8907 147.991 65.296 149.591 65.296C150.626 65.296 151.559 65.136 152.391 64.816C153.234 64.4854 153.901 64.016 154.391 63.408C154.882 62.8 155.127 62.08 155.127 61.248C155.127 60.736 155.037 60.2987 154.855 59.936C154.685 59.5627 154.445 59.248 154.135 58.992C153.837 58.7254 153.495 58.5014 153.111 58.32C152.727 58.1387 152.327 57.9894 151.911 57.872L146.039 56.128C145.399 55.936 144.781 55.696 144.183 55.408C143.586 55.1094 143.053 54.7414 142.583 54.304C142.114 53.856 141.741 53.3227 141.463 52.704C141.186 52.0747 141.047 51.3334 141.047 50.48C141.047 49.1147 141.399 47.952 142.103 46.992C142.818 46.0214 143.783 45.28 144.999 44.768C146.215 44.256 147.586 44.0054 149.111 44.016C150.658 44.0267 152.039 44.304 153.255 44.848C154.482 45.3814 155.495 46.1494 156.295 47.152C157.106 48.1547 157.65 49.3547 157.927 50.752L154.903 51.28C154.743 50.3414 154.386 49.536 153.831 48.864C153.287 48.1814 152.605 47.6587 151.783 47.296C150.962 46.9227 150.061 46.7307 149.079 46.72C148.141 46.7094 147.293 46.8587 146.535 47.168C145.778 47.4774 145.175 47.9094 144.727 48.464C144.279 49.008 144.055 49.6374 144.055 50.352C144.055 51.056 144.258 51.6267 144.663 52.064C145.069 52.4907 145.565 52.832 146.151 53.088C146.749 53.3334 147.33 53.536 147.895 53.696L152.279 54.96C152.781 55.0987 153.357 55.2907 154.007 55.536C154.669 55.7814 155.309 56.128 155.927 56.576C156.546 57.0134 157.058 57.6 157.463 58.336C157.869 59.0614 158.071 59.9787 158.071 61.088C158.071 62.1974 157.847 63.184 157.399 64.048C156.962 64.912 156.349 65.6374 155.559 66.224C154.77 66.8 153.853 67.2374 152.807 67.536C151.762 67.8454 150.642 68 149.447 68ZM168.468 68C166.75 68 165.268 67.6107 164.02 66.832C162.782 66.0534 161.828 64.976 161.156 63.6C160.484 62.224 160.148 60.6454 160.148 58.864C160.148 57.0507 160.489 55.4614 161.172 54.096C161.854 52.7307 162.82 51.6694 164.068 50.912C165.316 50.144 166.782 49.76 168.468 49.76C170.196 49.76 171.684 50.1494 172.932 50.928C174.18 51.696 175.134 52.768 175.796 54.144C176.468 55.5094 176.804 57.0827 176.804 58.864C176.804 60.6667 176.468 62.256 175.796 63.632C175.124 64.9974 174.164 66.0694 172.916 66.848C171.668 67.616 170.185 68 168.468 68ZM168.468 65.296C170.26 65.296 171.593 64.6987 172.468 63.504C173.342 62.3094 173.78 60.7627 173.78 58.864C173.78 56.912 173.337 55.36 172.452 54.208C171.566 53.0454 170.238 52.464 168.468 52.464C167.262 52.464 166.27 52.736 165.492 53.28C164.713 53.824 164.132 54.576 163.748 55.536C163.364 56.496 163.172 57.6054 163.172 58.864C163.172 60.8054 163.62 62.3627 164.516 63.536C165.412 64.7094 166.729 65.296 168.468 65.296ZM180.326 67.52V44H183.174V67.52H180.326ZM194.215 67.968C193.106 67.968 192.151 67.792 191.351 67.44C190.562 67.088 189.906 66.6187 189.383 66.032C188.86 65.4454 188.45 64.7947 188.151 64.08C187.852 63.3654 187.639 62.6347 187.511 61.888C187.394 61.1414 187.335 60.4427 187.335 59.792V50.24H190.215V58.896C190.215 59.7067 190.29 60.4907 190.439 61.248C190.588 62.0054 190.839 62.688 191.191 63.296C191.554 63.904 192.034 64.384 192.631 64.736C193.239 65.088 193.996 65.264 194.903 65.264C195.618 65.264 196.268 65.1414 196.855 64.896C197.442 64.6507 197.943 64.288 198.359 63.808C198.775 63.3174 199.095 62.6987 199.319 61.952C199.543 61.2054 199.655 60.336 199.655 59.344L201.527 59.92C201.527 61.584 201.223 63.0187 200.615 64.224C200.018 65.4294 199.17 66.3574 198.071 67.008C196.983 67.648 195.698 67.968 194.215 67.968ZM199.975 67.52V62.896H199.655V50.24H202.519V67.52H199.975ZM216.327 67.52C215.303 67.7227 214.289 67.8027 213.287 67.76C212.295 67.728 211.409 67.5307 210.631 67.168C209.852 66.7947 209.26 66.2187 208.855 65.44C208.513 64.7574 208.327 64.0694 208.295 63.376C208.273 62.672 208.263 61.8774 208.263 60.992V45.44H211.111V60.864C211.111 61.568 211.116 62.1707 211.127 62.672C211.148 63.1734 211.26 63.6054 211.463 63.968C211.847 64.6507 212.455 65.0507 213.287 65.168C214.129 65.2854 215.143 65.2534 216.327 65.072V67.52ZM204.759 52.592V50.24H216.327V52.592H204.759ZM219.835 47.184V44.24H222.683V47.184H219.835ZM219.835 67.52V50.24H222.683V67.52H219.835ZM234.524 68C232.806 68 231.324 67.6107 230.076 66.832C228.838 66.0534 227.884 64.976 227.212 63.6C226.54 62.224 226.204 60.6454 226.204 58.864C226.204 57.0507 226.545 55.4614 227.228 54.096C227.91 52.7307 228.876 51.6694 230.124 50.912C231.372 50.144 232.838 49.76 234.524 49.76C236.252 49.76 237.74 50.1494 238.988 50.928C240.236 51.696 241.19 52.768 241.852 54.144C242.524 55.5094 242.86 57.0827 242.86 58.864C242.86 60.6667 242.524 62.256 241.852 63.632C241.18 64.9974 240.22 66.0694 238.972 66.848C237.724 67.616 236.241 68 234.524 68ZM234.524 65.296C236.316 65.296 237.649 64.6987 238.524 63.504C239.398 62.3094 239.836 60.7627 239.836 58.864C239.836 56.912 239.393 55.36 238.508 54.208C237.622 53.0454 236.294 52.464 234.524 52.464C233.318 52.464 232.326 52.736 231.548 53.28C230.769 53.824 230.188 54.576 229.804 55.536C229.42 56.496 229.228 57.6054 229.228 58.864C229.228 60.8054 229.676 62.3627 230.572 63.536C231.468 64.7094 232.785 65.296 234.524 65.296ZM258.367 67.52V58.864C258.367 58.0427 258.292 57.2534 258.143 56.496C258.004 55.7387 257.753 55.0614 257.391 54.464C257.039 53.856 256.559 53.376 255.951 53.024C255.353 52.672 254.596 52.496 253.679 52.496C252.964 52.496 252.313 52.6187 251.727 52.864C251.151 53.0987 250.655 53.4614 250.239 53.952C249.823 54.4427 249.497 55.0614 249.263 55.808C249.039 56.544 248.927 57.4134 248.927 58.416L247.055 57.84C247.055 56.1654 247.353 54.7307 247.951 53.536C248.559 52.3307 249.407 51.408 250.495 50.768C251.593 50.1174 252.884 49.792 254.367 49.792C255.487 49.792 256.441 49.968 257.231 50.32C258.02 50.672 258.676 51.1414 259.199 51.728C259.721 52.304 260.132 52.9547 260.431 53.68C260.729 54.3947 260.937 55.1254 261.055 55.872C261.183 56.608 261.247 57.3067 261.247 57.968V67.52H258.367ZM246.047 67.52V50.24H248.607V54.864H248.927V67.52H246.047ZM271.614 67.984C269.556 67.984 267.865 67.536 266.542 66.64C265.23 65.7334 264.425 64.4694 264.126 62.848L267.038 62.384C267.273 63.3227 267.812 64.0694 268.654 64.624C269.497 65.168 270.542 65.44 271.79 65.44C272.974 65.44 273.902 65.1947 274.574 64.704C275.246 64.2134 275.582 63.5467 275.582 62.704C275.582 62.2134 275.47 61.8187 275.246 61.52C275.022 61.2107 274.558 60.9227 273.854 60.656C273.161 60.3894 272.11 60.0694 270.702 59.696C269.177 59.2907 267.977 58.8694 267.102 58.432C266.228 57.9947 265.604 57.488 265.23 56.912C264.857 56.336 264.67 55.6374 264.67 54.816C264.67 53.8027 264.948 52.9174 265.502 52.16C266.057 51.392 266.83 50.8 267.822 50.384C268.825 49.968 269.988 49.76 271.31 49.76C272.622 49.76 273.796 49.968 274.83 50.384C275.865 50.8 276.697 51.392 277.326 52.16C277.966 52.9174 278.345 53.8027 278.462 54.816L275.55 55.344C275.412 54.416 274.964 53.6854 274.206 53.152C273.46 52.6187 272.494 52.336 271.31 52.304C270.19 52.2614 269.278 52.4587 268.574 52.896C267.881 53.3334 267.534 53.9254 267.534 54.672C267.534 55.088 267.662 55.4454 267.918 55.744C268.185 56.0427 268.67 56.3254 269.374 56.592C270.089 56.8587 271.124 57.1627 272.478 57.504C274.004 57.888 275.204 58.3094 276.078 58.768C276.964 59.216 277.593 59.7494 277.966 60.368C278.34 60.976 278.526 61.728 278.526 62.624C278.526 64.288 277.913 65.6 276.686 66.56C275.46 67.5094 273.769 67.984 271.614 67.984ZM295.309 68C294.029 68 292.835 67.8134 291.725 67.44C290.616 67.0667 289.688 66.48 288.941 65.68C288.365 65.04 287.933 64.336 287.645 63.568C287.368 62.7894 287.213 61.968 287.181 61.104C287.181 60.2614 287.304 59.44 287.549 58.64C287.795 57.8294 288.184 57.1094 288.717 56.48C288.995 56.1387 289.304 55.8507 289.645 55.616C289.997 55.3707 290.349 55.1627 290.701 54.992C289.965 54.2027 289.4 53.4614 289.005 52.768C288.621 52.0747 288.429 51.2374 288.429 50.256C288.429 49.008 288.749 47.8827 289.389 46.88C290.04 45.8667 290.925 45.1254 292.045 44.656C292.589 44.4214 293.144 44.2614 293.709 44.176C294.285 44.08 294.845 44.032 295.389 44.032C296.307 44.032 297.197 44.16 298.061 44.416C298.925 44.672 299.661 45.088 300.269 45.664C300.675 46.0054 301.021 46.4 301.309 46.848C301.597 47.2854 301.821 47.744 301.981 48.224L299.197 48.944C298.995 48.4 298.659 47.9414 298.189 47.568C297.816 47.248 297.379 47.0294 296.877 46.912C296.387 46.7947 295.891 46.736 295.389 46.736C294.557 46.736 293.805 46.896 293.133 47.216C292.536 47.504 292.088 47.9094 291.789 48.432C291.491 48.944 291.341 49.552 291.341 50.256C291.341 50.864 291.443 51.3654 291.645 51.76C291.859 52.144 292.152 52.5547 292.525 52.992C292.749 53.2267 293 53.4774 293.277 53.744C293.565 54 293.859 54.2667 294.157 54.544L300.941 60.848C300.973 60.5814 300.995 60.3094 301.005 60.032C301.016 59.7547 301.021 59.488 301.021 59.232L301.005 56.048H303.613V59.792C303.613 60.5494 303.587 61.1947 303.533 61.728C303.491 62.2614 303.416 62.704 303.309 63.056L306.237 65.76L304.381 67.744L301.949 65.44C301.533 65.9094 301.037 66.32 300.461 66.672C299.885 67.024 299.309 67.2907 298.733 67.472C298.189 67.6747 297.629 67.8134 297.053 67.888C296.477 67.9627 295.896 68 295.309 68ZM295.373 65.264C295.896 65.264 296.371 65.232 296.797 65.168C297.224 65.104 297.629 64.9814 298.013 64.8C298.525 64.5547 298.92 64.32 299.197 64.096C299.475 63.872 299.704 63.664 299.885 63.472L292.861 57.04C292.477 57.168 292.115 57.3387 291.773 57.552C291.443 57.7654 291.155 58.016 290.909 58.304C290.632 58.6454 290.424 59.0454 290.285 59.504C290.157 59.9627 290.093 60.448 290.093 60.96C290.104 61.504 290.195 62.0054 290.365 62.464C290.536 62.9227 290.776 63.3334 291.085 63.696C291.555 64.24 292.189 64.64 292.989 64.896C293.789 65.1414 294.584 65.264 295.373 65.264ZM85.5907 111.52V88.48H94.6947C94.9187 88.48 95.1853 88.4907 95.4947 88.512C95.804 88.5227 96.1027 88.5547 96.3907 88.608C97.6387 88.8 98.684 89.2267 99.5267 89.888C100.38 90.5494 101.02 91.3867 101.447 92.4C101.873 93.4027 102.087 94.5174 102.087 95.744C102.087 96.96 101.868 98.0747 101.431 99.088C101.004 100.091 100.364 100.928 99.5107 101.6C98.668 102.261 97.628 102.688 96.3907 102.88C96.1027 102.923 95.804 102.955 95.4947 102.976C95.1853 102.997 94.9187 103.008 94.6947 103.008H88.4387V111.52H85.5907ZM88.4387 100.304H94.5987C94.8013 100.304 95.0307 100.293 95.2867 100.272C95.5533 100.251 95.804 100.213 96.0387 100.16C96.7747 99.9894 97.372 99.68 97.8307 99.232C98.3 98.7734 98.6413 98.24 98.8547 97.632C99.068 97.0134 99.1747 96.384 99.1747 95.744C99.1747 95.104 99.068 94.48 98.8547 93.872C98.6413 93.2534 98.3 92.7147 97.8307 92.256C97.372 91.7974 96.7747 91.488 96.0387 91.328C95.804 91.264 95.5533 91.2267 95.2867 91.216C95.0307 91.1947 94.8013 91.184 94.5987 91.184H88.4387V100.304ZM104.958 111.52V94.24H107.502V98.416L107.086 97.872C107.289 97.3387 107.55 96.848 107.87 96.4C108.201 95.952 108.569 95.584 108.974 95.296C109.422 94.9334 109.929 94.656 110.494 94.464C111.06 94.272 111.636 94.16 112.222 94.128C112.809 94.0854 113.358 94.1227 113.87 94.24V96.912C113.273 96.752 112.617 96.7094 111.902 96.784C111.188 96.8587 110.526 97.12 109.918 97.568C109.364 97.9627 108.932 98.4427 108.622 99.008C108.324 99.5734 108.116 100.187 107.998 100.848C107.881 101.499 107.822 102.165 107.822 102.848V111.52H104.958ZM123.623 112C121.906 112 120.423 111.611 119.175 110.832C117.938 110.053 116.983 108.976 116.311 107.6C115.639 106.224 115.303 104.645 115.303 102.864C115.303 101.051 115.645 99.4614 116.327 98.096C117.01 96.7307 117.975 95.6694 119.223 94.912C120.471 94.144 121.938 93.76 123.623 93.76C125.351 93.76 126.839 94.1494 128.087 94.928C129.335 95.696 130.29 96.768 130.951 98.144C131.623 99.5094 131.959 101.083 131.959 102.864C131.959 104.667 131.623 106.256 130.951 107.632C130.279 108.997 129.319 110.069 128.071 110.848C126.823 111.616 125.341 112 123.623 112ZM123.623 109.296C125.415 109.296 126.749 108.699 127.623 107.504C128.498 106.309 128.935 104.763 128.935 102.864C128.935 100.912 128.493 99.36 127.607 98.208C126.722 97.0454 125.394 96.464 123.623 96.464C122.418 96.464 121.426 96.736 120.647 97.28C119.869 97.824 119.287 98.576 118.903 99.536C118.519 100.496 118.327 101.605 118.327 102.864C118.327 104.805 118.775 106.363 119.671 107.536C120.567 108.709 121.885 109.296 123.623 109.296ZM139.209 111.52L132.937 94.24H135.817L140.665 107.888L145.497 94.24H148.393L142.121 111.52H139.209ZM151.287 91.184V88.24H154.135V91.184H151.287ZM151.287 111.52V94.24H154.135V111.52H151.287ZM165.4 112C163.789 112 162.408 111.6 161.256 110.8C160.104 109.989 159.213 108.896 158.584 107.52C157.965 106.144 157.656 104.592 157.656 102.864C157.656 101.136 157.965 99.584 158.584 98.208C159.213 96.832 160.104 95.7494 161.256 94.96C162.408 94.16 163.784 93.76 165.384 93.76C167.016 93.76 168.386 94.1547 169.496 94.944C170.605 95.7334 171.442 96.816 172.008 98.192C172.584 99.568 172.872 101.125 172.872 102.864C172.872 104.581 172.584 106.133 172.008 107.52C171.442 108.896 170.605 109.989 169.496 110.8C168.386 111.6 167.021 112 165.4 112ZM165.752 109.392C166.914 109.392 167.869 109.115 168.616 108.56C169.362 107.995 169.912 107.221 170.264 106.24C170.626 105.248 170.808 104.123 170.808 102.864C170.808 101.584 170.626 100.459 170.264 99.488C169.912 98.5067 169.368 97.744 168.632 97.2C167.896 96.6454 166.962 96.368 165.832 96.368C164.658 96.368 163.688 96.656 162.92 97.232C162.162 97.808 161.597 98.5867 161.224 99.568C160.861 100.549 160.68 101.648 160.68 102.864C160.68 104.091 160.866 105.2 161.24 106.192C161.613 107.173 162.173 107.952 162.92 108.528C163.677 109.104 164.621 109.392 165.752 109.392ZM170.808 111.52V98.8H170.488V88.48H173.352V111.52H170.808ZM185.002 112C183.306 112 181.824 111.627 180.554 110.88C179.296 110.123 178.314 109.072 177.61 107.728C176.906 106.373 176.554 104.795 176.554 102.992C176.554 101.104 176.901 99.472 177.594 98.096C178.288 96.7094 179.253 95.6427 180.49 94.896C181.738 94.1387 183.2 93.76 184.874 93.76C186.613 93.76 188.09 94.16 189.306 94.96C190.533 95.76 191.45 96.9014 192.058 98.384C192.677 99.8667 192.944 101.632 192.858 103.68H189.978V102.656C189.946 100.533 189.514 98.9494 188.682 97.904C187.85 96.848 186.613 96.32 184.97 96.32C183.21 96.32 181.872 96.8854 180.954 98.016C180.037 99.1467 179.578 100.768 179.578 102.88C179.578 104.917 180.037 106.496 180.954 107.616C181.872 108.736 183.178 109.296 184.874 109.296C186.016 109.296 187.008 109.035 187.85 108.512C188.693 107.989 189.354 107.237 189.834 106.256L192.57 107.2C191.898 108.725 190.885 109.909 189.53 110.752C188.186 111.584 186.677 112 185.002 112ZM178.618 103.68V101.392H191.386V103.68H178.618ZM196.101 111.52V94.24H198.645V98.416L198.229 97.872C198.431 97.3387 198.693 96.848 199.013 96.4C199.343 95.952 199.711 95.584 200.117 95.296C200.565 94.9334 201.071 94.656 201.637 94.464C202.202 94.272 202.778 94.16 203.365 94.128C203.951 94.0854 204.501 94.1227 205.013 94.24V96.912C204.415 96.752 203.759 96.7094 203.045 96.784C202.33 96.8587 201.669 97.12 201.061 97.568C200.506 97.9627 200.074 98.4427 199.765 99.008C199.466 99.5734 199.258 100.187 199.141 100.848C199.023 101.499 198.965 102.165 198.965 102.848V111.52H196.101ZM213.621 111.984C211.563 111.984 209.872 111.536 208.549 110.64C207.237 109.733 206.432 108.469 206.133 106.848L209.045 106.384C209.28 107.323 209.819 108.069 210.661 108.624C211.504 109.168 212.549 109.44 213.797 109.44C214.981 109.44 215.909 109.195 216.581 108.704C217.253 108.213 217.589 107.547 217.589 106.704C217.589 106.213 217.477 105.819 217.253 105.52C217.029 105.211 216.565 104.923 215.861 104.656C215.168 104.389 214.117 104.069 212.709 103.696C211.184 103.291 209.984 102.869 209.109 102.432C208.235 101.995 207.611 101.488 207.237 100.912C206.864 100.336 206.677 99.6374 206.677 98.816C206.677 97.8027 206.955 96.9174 207.509 96.16C208.064 95.392 208.837 94.8 209.829 94.384C210.832 93.968 211.995 93.76 213.317 93.76C214.629 93.76 215.803 93.968 216.837 94.384C217.872 94.8 218.704 95.392 219.333 96.16C219.973 96.9174 220.352 97.8027 220.469 98.816L217.557 99.344C217.419 98.416 216.971 97.6854 216.213 97.152C215.467 96.6187 214.501 96.336 213.317 96.304C212.197 96.2614 211.285 96.4587 210.581 96.896C209.888 97.3334 209.541 97.9254 209.541 98.672C209.541 99.088 209.669 99.4454 209.925 99.744C210.192 100.043 210.677 100.325 211.381 100.592C212.096 100.859 213.131 101.163 214.485 101.504C216.011 101.888 217.211 102.309 218.085 102.768C218.971 103.216 219.6 103.749 219.973 104.368C220.347 104.976 220.533 105.728 220.533 106.624C220.533 108.288 219.92 109.6 218.693 110.56C217.467 111.509 215.776 111.984 213.621 111.984Z" fill="white"/>
<defs>
<linearGradient id="paint0_linear_2_1902" x1="16.69" y1="55.52" x2="180.63" y2="214.958" gradientUnits="userSpaceOnUse">
<stop stop-color="#4144F2"/>
<stop offset="0.158654" stop-color="#E290EF"/>
</linearGradient>
</defs>
</svg>
