<svg width="65" height="65" viewBox="0 0 65 65" fill="none" xmlns="http://www.w3.org/2000/svg">
<rect width="65" height="65" rx="20" fill="#D9D9D9" fill-opacity="0.2"/>
<path d="M54.0056 22.387C54.0072 22.0209 53.8634 21.6691 53.6057 21.4091C53.3481 21.149 52.9977 21.0019 52.6316 21H40.4876C40.3064 21.0009 40.1271 21.0375 39.96 21.1077C39.7929 21.1779 39.6413 21.2804 39.5139 21.4092C39.3864 21.538 39.2855 21.6906 39.217 21.8584C39.1485 22.0262 39.1137 22.2057 39.1146 22.387V25.111C39.113 25.4768 39.2568 25.8284 39.5142 26.0883C39.7717 26.3482 40.1218 26.4951 40.4876 26.4969H44.7106L34.9406 36.361L25.3556 26.6851C25.1043 26.4294 24.8047 26.2264 24.4741 26.0878C24.1435 25.9492 23.7886 25.8777 23.4301 25.8777C23.0716 25.8777 22.7168 25.9492 22.3862 26.0878C22.0556 26.2264 21.7559 26.4294 21.5046 26.6851L10.4046 37.885C10.1454 38.1479 10 38.5022 10 38.8715C10 39.2407 10.1454 39.5951 10.4046 39.858L12.3046 41.7729C12.4322 41.9025 12.5843 42.0056 12.752 42.0758C12.9197 42.1461 13.0998 42.1821 13.2816 42.1821C13.4635 42.1821 13.6435 42.1461 13.8112 42.0758C13.979 42.0056 14.131 41.9025 14.2586 41.7729L23.4286 32.516L33.0136 42.192C33.2649 42.4477 33.5646 42.6507 33.8951 42.7893C34.2257 42.9279 34.5806 42.9993 34.9391 42.9993C35.2976 42.9993 35.6524 42.9279 35.983 42.7893C36.3136 42.6507 36.6133 42.4477 36.8646 42.192L48.5576 30.387V34.646C48.556 35.0118 48.6998 35.3633 48.9572 35.6232C49.2147 35.8831 49.5648 36.0301 49.9306 36.032H52.6306C52.8118 36.0312 52.9911 35.9948 53.1583 35.9247C53.3254 35.8546 53.4771 35.7522 53.6047 35.6235C53.7323 35.4948 53.8332 35.3423 53.9019 35.1746C53.9705 35.0068 54.0054 34.8272 54.0046 34.646L54.0056 22.387Z" fill="url(#paint0_linear_2_2191)"/>
<defs>
<linearGradient id="paint0_linear_2_2191" x1="10" y1="21" x2="54.0064" y2="21.0015" gradientUnits="userSpaceOnUse">
<stop offset="0.0001" stop-color="#E59CFF"/>
<stop offset="0.5001" stop-color="#BA9CFF"/>
<stop offset="1" stop-color="#9CB2FF"/>
</linearGradient>
</defs>
</svg>
