<svg width="16" height="16" viewBox="0 0 16 16" fill="none" xmlns="http://www.w3.org/2000/svg">
<path d="M8.00004 1.33337C4.32404 1.33337 1.33337 4.32404 1.33337 8.00004C1.33337 11.676 4.32404 14.6667 8.00004 14.6667C11.676 14.6667 14.6667 11.676 14.6667 8.00004C14.6667 7.24937 14.536 6.52951 14.306 5.85551L13.2266 6.93494C13.2966 7.27894 13.3334 7.63537 13.3334 8.00004C13.3334 10.9407 10.9407 13.3334 8.00004 13.3334C5.05937 13.3334 2.66671 10.9407 2.66671 8.00004C2.66671 5.05937 5.05937 2.66671 8.00004 2.66671C9.08871 2.66671 10.1013 2.99597 10.9467 3.55863L11.9011 2.60421C10.8024 1.80821 9.45671 1.33337 8.00004 1.33337ZM14.1954 2.19535L7.33337 9.05733L5.13806 6.86202L4.19535 7.80473L7.33337 10.9427L15.1381 3.13806L14.1954 2.19535Z" fill="#1DFFBF"/>
</svg>
