<svg width="65" height="65" viewBox="0 0 65 65" fill="none" xmlns="http://www.w3.org/2000/svg">
<rect width="65" height="65" rx="20" fill="#D9D9D9" fill-opacity="0.2"/>
<path d="M47.5498 30.0104H46.7808C46.9138 29.6044 47.0448 29.1845 47.1658 28.7505C48.7588 23.0635 47.5848 18.8805 42.2298 16.7395C39.9738 11.4585 33.9518 10.5165 30.0208 11.3065C27.4398 11.8215 20.7338 10.8395 18.6018 10.5065C18.5249 10.4954 18.4465 10.5037 18.3736 10.5305C18.3007 10.5573 18.2356 10.6018 18.1842 10.66C18.1328 10.7183 18.0967 10.7884 18.0792 10.8641C18.0617 10.9398 18.0632 11.0186 18.0838 11.0935C18.4353 12.3072 18.8841 13.4907 19.4258 14.6325C15.5258 16.6405 13.3978 22.0545 16.4798 30.6205V30.6265C16.5598 30.8505 16.7948 31.4755 17.0608 32.1265C17.1422 32.3257 17.171 32.5426 17.1446 32.7562C17.1181 32.9698 17.0373 33.173 16.9098 33.3464C16.8838 33.3854 16.8567 33.4215 16.8307 33.4575C16.702 33.6251 16.535 33.7596 16.3438 33.8495C15.7248 34.1495 15.5368 34.6495 15.7368 36.3425C16.2738 40.7635 16.1558 43.1425 18.0898 42.8645C18.2769 42.8387 18.4674 42.8709 18.6358 42.9565C18.7723 43.0243 18.8906 43.1237 18.9809 43.2465C19.0712 43.3693 19.1308 43.512 19.1548 43.6625C19.9178 48.4785 24.4548 50.2235 29.0158 53.4625C29.7769 54.1168 30.7435 54.4833 31.7471 54.4981C32.7507 54.5129 33.7276 54.175 34.5078 53.5435C37.9078 50.2825 39.5918 48.7175 40.6298 47.5715H36.0298C35.1298 48.4335 33.9657 49.5405 32.4167 51.0245C31.7037 51.5055 31.1778 50.9755 30.8828 50.7665C26.1208 47.3795 22.6638 46.1825 22.3218 42.8415C22.2375 42.1716 21.9659 41.5391 21.5381 41.0167C21.1104 40.4943 20.5439 40.1033 19.9037 39.8885C19.7447 39.8205 19.6063 39.712 19.5023 39.5737C19.3984 39.4354 19.3327 39.2722 19.3118 39.1005C19.2228 38.3445 19.1378 37.4705 19.0228 36.4645C18.9908 36.1953 19.0623 35.9239 19.2227 35.7055V35.6995C19.8887 34.7995 21.1638 33.0605 20.2758 31.3215C20.9404 30.8242 21.4837 30.1829 21.8648 29.4455C22.718 27.9862 23.0613 26.2844 22.8408 24.6085C22.8256 24.5215 22.8357 24.432 22.8697 24.3505C22.9037 24.2691 22.9603 24.1991 23.0329 24.1488C23.1054 24.0984 23.1908 24.0698 23.279 24.0664C23.3672 24.063 23.4546 24.0849 23.5308 24.1295C25.6598 25.3625 27.5238 24.1295 35.4008 24.5515C38.3878 24.7095 41.5288 25.7235 43.5008 28.0245C43.6544 28.2098 43.7389 28.4427 43.7398 28.6835C43.7393 28.7911 43.7225 28.898 43.6898 29.0005C42.7168 31.9415 41.7458 33.4105 42.6518 35.1905C42.8724 35.6229 42.9758 36.1056 42.9518 36.5905C42.9428 36.7855 42.9398 36.9745 42.9458 37.1675C42.9612 37.5569 42.8958 37.9453 42.7538 38.3082C42.6119 38.6712 42.3963 39.0009 42.1208 39.2765C41.6687 39.7086 41.2907 40.2119 41.0018 40.7665C40.7458 41.2365 40.5308 41.6405 40.3448 41.9995H44.0638V41.9945H44.7747C44.6325 42.5033 44.3285 42.952 43.9087 43.2728C43.4889 43.5935 42.9761 43.769 42.4478 43.7725H34.1848C34.201 43.5416 34.1264 43.3136 33.977 43.1369C33.8276 42.9602 33.6151 42.8489 33.3848 42.8265H29.8848C29.6527 42.8496 29.4389 42.9627 29.2894 43.1416C29.1398 43.3205 29.0664 43.551 29.0848 43.7835V45.7445C29.0661 45.9771 29.1394 46.2078 29.289 46.387C29.4386 46.5661 29.6525 46.6794 29.8848 46.7025H33.3848C33.6151 46.6801 33.8276 46.5687 33.977 46.392C34.1264 46.2154 34.201 45.9873 34.1848 45.7565H42.4478C43.4991 45.7492 44.513 45.3656 45.306 44.6754C46.099 43.9851 46.6186 43.0337 46.7708 41.9935H47.5368C48.1927 41.9887 48.82 41.7236 49.2805 41.2565C49.7411 40.7894 49.9973 40.1584 49.9928 39.5025V32.5025C49.9976 31.8485 49.7433 31.2193 49.2855 30.7523C48.8277 30.2854 48.2037 30.0186 47.5498 30.0104Z" fill="url(#paint0_linear_2_2179)"/>
<defs>
<linearGradient id="paint0_linear_2_2179" x1="15.0071" y1="10.5017" x2="49.9934" y2="10.5022" gradientUnits="userSpaceOnUse">
<stop offset="0.0001" stop-color="#E59CFF"/>
<stop offset="0.5001" stop-color="#BA9CFF"/>
<stop offset="1" stop-color="#9CB2FF"/>
</linearGradient>
</defs>
</svg>
