<svg width="16" height="16" viewBox="0 0 16 16" fill="none" xmlns="http://www.w3.org/2000/svg">
<path d="M6.10671 7.24665C6.04004 7.23998 5.96004 7.23998 5.88671 7.24665C4.30004 7.19331 3.04004 5.89331 3.04004 4.29331C3.04004 2.65998 4.36004 1.33331 6.00004 1.33331C7.63337 1.33331 8.96004 2.65998 8.96004 4.29331C8.95337 5.89331 7.69337 7.19331 6.10671 7.24665Z" stroke="#D7D7D7" stroke-width="1.5" stroke-linecap="round" stroke-linejoin="round"/>
<path d="M10.9401 2.66669C12.2334 2.66669 13.2734 3.71335 13.2734 5.00002C13.2734 6.26002 12.2734 7.28669 11.0267 7.33335C10.9734 7.32669 10.9134 7.32669 10.8534 7.33335" stroke="#D7D7D7" stroke-width="1.5" stroke-linecap="round" stroke-linejoin="round"/>
<path d="M2.77335 9.70669C1.16002 10.7867 1.16002 12.5467 2.77335 13.62C4.60669 14.8467 7.61335 14.8467 9.44669 13.62C11.06 12.54 11.06 10.78 9.44669 9.70669C7.62002 8.48669 4.61335 8.48669 2.77335 9.70669Z" stroke="#D7D7D7" stroke-width="1.5" stroke-linecap="round" stroke-linejoin="round"/>
<path d="M12.2267 13.3333C12.7067 13.2333 13.16 13.04 13.5334 12.7533C14.5734 11.9733 14.5734 10.6866 13.5334 9.90665C13.1667 9.62665 12.72 9.43998 12.2467 9.33331" stroke="#D7D7D7" stroke-width="1.5" stroke-linecap="round" stroke-linejoin="round"/>
</svg>
